<?xml version="1.0" encoding="UTF-8"?>
<svg class="svg_mc" viewBox="0 0 88 27" xmlns="http://www.w3.org/2000/svg">
    <g fill="none" fill-rule="evenodd">
        <g transform="translate(-225 -32)">
            <g>
                <g transform="translate(61 30)">
                    <g transform="translate(164 2)">
                        <g>
                            <g>
                                <g>
                                    <path d="m7.7408 18.333c-0.459-0.29113-0.93913-0.51652-1.4392-0.67735-0.50009-0.16024-1.0231-0.24124-1.5689-0.24124-0.35687 0-0.6838 0.036978-0.97963 0.11093-0.29641 0.073956-0.54998 0.18078-0.76187 0.32165-0.2113 0.14028-0.37624 0.30874-0.49363 0.50478-0.11739 0.19663-0.17609 0.41733-0.17609 0.66267 0 0.22422 0.051065 0.41557 0.1532 0.57404 0.10213 0.15848 0.24887 0.2923 0.44022 0.40148 0.19135 0.10976 0.42496 0.20015 0.70024 0.27235 0.27587 0.071609 0.58696 0.13265 0.93385 0.18372l0.7425 0.099196c0.43376 0.061044 0.85754 0.15554 1.2702 0.2835 0.41322 0.12737 0.78183 0.3058 1.1058 0.53589 0.324 0.2295 0.58461 0.51828 0.78065 0.86459 0.19663 0.34689 0.29465 0.76833 0.29465 1.2631 0 0.54587-0.11504 1.0283-0.34454 1.4463-0.2295 0.4185-0.54117 0.77067-0.93385 1.0559-0.39326 0.28585-0.84815 0.50302-1.3664 0.65093-0.51828 0.1485-1.0677 0.22187-1.6499 0.22187-0.36215 0-0.73839-0.030522-1.1287-0.092152-0.39033-0.061044-0.77596-0.15143-1.1557-0.27176-0.38035-0.11974-0.74367-0.26941-1.0906-0.44785-0.34689-0.17902-0.65798-0.38798-0.93385-0.62804l0.94148-1.3776c0.18372 0.16846 0.40441 0.32459 0.66209 0.46722 0.25767 0.14263 0.53413 0.26765 0.83054 0.37507 0.29583 0.10741 0.60339 0.19017 0.92211 0.24887 0.31872 0.058696 0.63391 0.088044 0.94559 0.088044 0.35217 0 0.6797-0.035217 0.98315-0.10741 0.30346-0.071609 0.56759-0.17609 0.79239-0.31343 0.22422-0.13793 0.40148-0.30463 0.53178-0.50126 0.1303-0.19663 0.19546-0.41733 0.19546-0.66209 0-0.4185-0.20543-0.73722-0.6163-0.95733-0.41087-0.21952-1.009-0.3827-1.7949-0.48952l-0.83407-0.11504c-0.39796-0.056348-0.78711-0.14791-1.1675-0.27528-0.38035-0.12737-0.71961-0.30698-1.0178-0.53941-0.29876-0.23185-0.53883-0.52239-0.71961-0.87222-0.18137-0.34924-0.27176-0.7742-0.27176-1.2743 0-0.53589 0.11093-1.0119 0.33339-1.4275 0.22187-0.41615 0.52415-0.76539 0.90685-1.0483 0.3827-0.2835 0.83054-0.49891 1.343-0.64683 0.513-0.1485 1.06-0.22187 1.6417-0.22187 0.78065 0 1.4856 0.1033 2.116 0.30991 0.63039 0.20661 1.2156 0.48835 1.7568 0.8458l-0.87867 1.3999zm5.8396 0.81939c0.51007 0 0.97846 0.093326 1.4046 0.27939 0.42613 0.18665 0.79063 0.44902 1.0947 0.78828 0.30346 0.33926 0.54059 0.74543 0.71198 1.2173 0.1708 0.47191 0.25591 0.99372 0.25591 1.5654 0 0.10213-0.0023478 0.20367-0.0076304 0.3058-0.0052826 0.10213-0.012913 0.19898-0.022891 0.29113h-5.4188c0.051065 0.33163 0.14557 0.61454 0.28291 0.84933 0.13793 0.23478 0.30404 0.4273 0.49774 0.57815 0.19428 0.15026 0.41087 0.26178 0.65093 0.3328 0.23948 0.071609 0.48952 0.10683 0.75013 0.10683 0.36743 0 0.73604-0.066913 1.1058-0.2025 0.36978-0.135 0.70787-0.32517 1.0143-0.57052l0.79591 1.1405c-0.44902 0.3827-0.92504 0.65093-1.4275 0.80354-0.50302 0.1532-1.0325 0.23009-1.5883 0.23009-0.55115 0-1.0565-0.092152-1.5155-0.27528-0.459-0.18372-0.85461-0.44433-1.1862-0.78065-0.33163-0.33691-0.5893-0.74309-0.77302-1.2173-0.18372-0.47485-0.27587-1.0025-0.27587-1.5848 0-0.5717 0.089217-1.0947 0.26824-1.5689 0.17843-0.47485 0.42848-0.88161 0.75013-1.2209 0.32165-0.33926 0.70493-0.60163 1.1522-0.78828 0.44609-0.18607 0.93972-0.27939 1.4803-0.27939zm-0.030522 1.4234c-0.28585 0-0.53941 0.043435-0.76128 0.12972-0.22187 0.08687-0.41322 0.21072-0.57404 0.37154-0.16024 0.16024-0.2923 0.35217-0.39385 0.57404-0.10213 0.22187-0.17374 0.46546-0.21424 0.73076h3.8041c-0.08687-0.5717-0.29113-1.0154-0.6122-1.3318-0.32224-0.31578-0.73839-0.47426-1.2485-0.47426zm8.5038-1.4234c0.55115 0 1.0636 0.098022 1.5384 0.29465 0.47485 0.19663 0.87515 0.48835 1.2021 0.87633l-1.026 1.0947c-0.26002-0.24476-0.53061-0.43259-0.81117-0.5623s-0.59693-0.19487-0.94911-0.19487c-0.30639 0-0.59224 0.057522-0.85754 0.17198-0.2653 0.11446-0.4948 0.27528-0.68909 0.48189-0.19428 0.20661-0.34572 0.4543-0.45548 0.7425-0.10976 0.28878-0.16493 0.60633-0.16493 0.95263 0 0.34689 0.055174 0.66502 0.16493 0.95322 0.10976 0.2882 0.26178 0.53589 0.45548 0.7425 0.1937 0.20661 0.4232 0.36685 0.68909 0.48189 0.2653 0.11504 0.55115 0.17198 0.85754 0.17198 0.35217 0 0.68087-0.072783 0.98726-0.21835 0.30639-0.14498 0.57698-0.32752 0.81117-0.54704l0.98726 1.1023c-0.33691 0.38739-0.73957 0.6797-1.2091 0.87633-0.46957 0.19663-0.97963 0.29465-1.5308 0.29465-0.58167 0-1.1099-0.098022-1.5842-0.29465-0.47426-0.19663-0.88043-0.46722-1.2168-0.81117-0.33691-0.34396-0.59693-0.7513-0.78065-1.2209-0.18372-0.46898-0.27587-0.97963-0.27587-1.5308 0-0.55115 0.092152-1.0612 0.27587-1.5308 0.18372-0.46898 0.44374-0.87633 0.78065-1.2203 0.33691-0.34454 0.7425-0.61454 1.2168-0.81117 0.47367-0.19722 1.0025-0.29524 1.5842-0.29524zm10.945 4.4163c0 0.58167-0.096848 1.0818-0.29054 1.4997-0.19428 0.4185-0.44902 0.7607-0.76539 1.026-0.31637 0.2653-0.67852 0.46017-1.087 0.5852-0.40852 0.12502-0.82702 0.18783-1.2555 0.18783s-0.84698-0.062804-1.2549-0.18783c-0.40852-0.12502-0.77185-0.31989-1.0906-0.5852-0.31872-0.2653-0.57404-0.6075-0.76539-1.026-0.19135-0.41791-0.28702-0.91859-0.28702-1.4997v-4.2249h1.6071v4.0793c0 0.35217 0.045783 0.65211 0.13793 0.89922 0.092152 0.2477 0.21835 0.44785 0.37917 0.60163 0.16083 0.15261 0.351 0.26354 0.56993 0.3328 0.21952 0.068674 0.4543 0.1033 0.70376 0.1033 0.25004 0 0.48483-0.03463 0.70435-0.1033 0.21952-0.068674 0.4097-0.17961 0.56993-0.3328 0.16083-0.1532 0.28702-0.35393 0.37859-0.60163 0.092152-0.24711 0.13793-0.54704 0.13793-0.89922v-4.0793h1.6071v4.2249h5.87e-4zm5.8396-4.4163c0.24535 0 0.46546 0.016435 0.66209 0.049891 0.19663 0.03287 0.3868 0.085696 0.57052 0.15672l-0.3827 1.5848c-0.16846-0.08687-0.36509-0.1532-0.5893-0.19957-0.2248-0.04637-0.43376-0.068674-0.62746-0.068674-0.25533 0-0.48952 0.043435-0.70376 0.12972-0.21424 0.08687-0.39796 0.21424-0.55115 0.38328-0.1532 0.16846-0.27293 0.37448-0.3598 0.61983-0.08687 0.24476-0.1303 0.52298-0.1303 0.83465v4.0336h-1.5995v-7.3323h1.5842v0.82643c0.24476-0.35217 0.5488-0.60985 0.91096-0.77302 0.36157-0.16376 0.76715-0.24535 1.2162-0.24535zm5.3736 0c0.51007 0 0.97846 0.093326 1.4046 0.27939 0.42613 0.18665 0.79063 0.44902 1.0947 0.78828 0.30346 0.33926 0.54059 0.74543 0.71198 1.2173 0.17022 0.47191 0.25591 0.99372 0.25591 1.5654 0 0.10213-0.0023478 0.20367-0.0070435 0.3058-0.0052826 0.10213-0.012913 0.19898-0.023478 0.29113h-5.4188c0.051065 0.33163 0.14557 0.61454 0.28291 0.84933 0.13793 0.23478 0.30346 0.4273 0.49774 0.57815 0.19428 0.15026 0.41087 0.26178 0.65093 0.3328 0.23948 0.071609 0.48952 0.10683 0.75013 0.10683 0.36743 0 0.73604-0.066913 1.1058-0.2025 0.37037-0.135 0.70787-0.32517 1.0143-0.57052l0.79591 1.1405c-0.44843 0.3827-0.92446 0.65093-1.4269 0.80354-0.50302 0.1532-1.0325 0.23009-1.5883 0.23009-0.55115 0-1.0565-0.092152-1.5155-0.27528-0.459-0.18372-0.85461-0.44433-1.1862-0.78065-0.33163-0.33691-0.5893-0.74309-0.77302-1.2173-0.18372-0.47485-0.27587-1.0025-0.27587-1.5848 0-0.5717 0.089217-1.0947 0.26765-1.5689 0.17843-0.47485 0.42848-0.88161 0.75013-1.2209 0.32165-0.33926 0.70552-0.60163 1.1516-0.78828 0.44609-0.18607 0.93972-0.27939 1.4809-0.27939zm-0.031109 1.4234c-0.28585 0-0.53941 0.043435-0.76187 0.12972-0.22187 0.08687-0.41322 0.21072-0.57404 0.37154-0.16024 0.16024-0.2923 0.35217-0.39385 0.57404-0.10213 0.22187-0.17374 0.46546-0.21424 0.73076h3.8047c-0.087456-0.5717-0.29113-1.0154-0.61278-1.3318-0.32107-0.31578-0.73722-0.47426-1.2479-0.47426zm10.402-4.8142c0.47426 0 0.93385 0.051065 1.3776 0.1532 0.44433 0.10213 0.85754 0.25004 1.2397 0.44433 0.3827 0.1937 0.73017 0.42965 1.0413 0.70787 0.31109 0.27822 0.5717 0.59048 0.78065 0.93737l-1.4463 0.96437c-0.32693-0.47954-0.74602-0.85754-1.2596-1.1328-0.513-0.27528-1.0906-0.41322-1.7333-0.41322-0.54646 0-1.0512 0.0945-1.5161 0.28291-0.46428 0.189-0.86459 0.4543-1.2015 0.79591-0.33633 0.3422-0.60046 0.75307-0.7918 1.2326s-0.28702 1.0078-0.28702 1.5842c0 0.57698 0.095674 1.1052 0.28702 1.5842 0.19135 0.47954 0.45548 0.89041 0.7918 1.2326 0.33691 0.3422 0.73722 0.60691 1.2015 0.79591 0.46487 0.189 0.96965 0.28291 1.5161 0.28291 0.63743 0 1.2103-0.135 1.718-0.40559 0.5083-0.27059 0.93033-0.648 1.2672-1.1328l1.4087 1.033c-0.23009 0.33633-0.49891 0.63743-0.80765 0.90274-0.30874 0.2653-0.65093 0.49246-1.026 0.68146s-0.7783 0.33339-1.2091 0.43259c-0.43141 0.099196-0.88161 0.14967-1.3512 0.14967-0.82174 0-1.5772-0.13911-2.2657-0.41733-0.68909-0.27763-1.2807-0.66443-1.7755-1.1592-0.49539-0.4948-0.88043-1.0818-1.1563-1.7603-0.27528-0.67911-0.41322-1.4187-0.41322-2.2199 0-0.8012 0.13793-1.5408 0.41322-2.2199 0.27528-0.67852 0.66091-1.2655 1.1563-1.7603 0.4948-0.4948 1.0865-0.88102 1.7755-1.1592 0.68909-0.27822 1.4439-0.41733 2.2657-0.41733zm9.4529 3.3908c0.56641 0 1.0906 0.098022 1.5725 0.29465 0.48248 0.19663 0.8998 0.46722 1.2514 0.81117 0.35217 0.34396 0.62746 0.7513 0.82702 1.2203 0.19898 0.46957 0.29817 0.98022 0.29817 1.5308 0 0.55115-0.099196 1.0618-0.29817 1.5308-0.19957 0.46957-0.47485 0.87691-0.82702 1.2209-0.35217 0.34454-0.76891 0.61454-1.2514 0.81117-0.48189 0.19663-1.006 0.29465-1.5725 0.29465-0.56641 0-1.0912-0.098022-1.573-0.29465-0.48248-0.19663-0.89863-0.46722-1.2479-0.81117-0.34983-0.34396-0.62335-0.7513-0.82291-1.2209-0.19898-0.46898-0.29817-0.97963-0.29817-1.5308s0.099196-1.0612 0.29817-1.5308c0.19957-0.46898 0.47309-0.87633 0.82291-1.2203 0.34924-0.34454 0.76539-0.61454 1.2479-0.81117 0.48189-0.19663 1.0066-0.29465 1.573-0.29465zm0 1.5079c-0.32693 0-0.63039 0.057522-0.91096 0.17198-0.28057 0.11446-0.52298 0.27528-0.72665 0.48189-0.20426 0.20661-0.36509 0.4543-0.48248 0.7425-0.11739 0.28878-0.17609 0.60633-0.17609 0.95263 0 0.34689 0.058696 0.66502 0.17609 0.95322 0.11798 0.2882 0.27822 0.53589 0.48248 0.7425 0.20367 0.20661 0.44667 0.36685 0.72665 0.48189 0.28115 0.11504 0.58402 0.17198 0.91096 0.17198 0.32635 0 0.6298-0.057522 0.91037-0.17198 0.28057-0.11504 0.52415-0.27528 0.73076-0.48189 0.2072-0.20661 0.36861-0.4543 0.48659-0.7425 0.11739-0.2882 0.17609-0.60633 0.17609-0.95322 0-0.3463-0.058696-0.66443-0.17609-0.95263-0.11798-0.2882-0.27939-0.53589-0.48659-0.7425-0.20661-0.20661-0.4502-0.36743-0.73076-0.48189-0.28057-0.11446-0.58402-0.17198-0.91037-0.17198zm8.7638-1.5079c0.52591 0 0.97728 0.098022 1.3547 0.29465 0.37741 0.19663 0.69378 0.45783 0.9497 0.78476v-4.5777h1.5995v11.022h-1.5995v-0.87985c-0.25533 0.32635-0.5717 0.58696-0.9497 0.78065-0.37741 0.1937-0.82878 0.29113-1.3547 0.29113-0.51535 0-0.99489-0.095674-1.4386-0.28702-0.44433-0.19135-0.83172-0.45783-1.1633-0.80002-0.33222-0.34161-0.59224-0.74837-0.78065-1.2203-0.18959-0.47191-0.28291-0.98902-0.28291-1.5502 0-0.56113 0.093913-1.0777 0.28291-1.5496 0.18841-0.47191 0.44843-0.87926 0.78065-1.2209 0.33163-0.34161 0.71902-0.60809 1.1633-0.79943 0.44374-0.19252 0.92328-0.2882 1.4386-0.2882zm0.19135 1.5079c-0.34689 0-0.6568 0.062217-0.93033 0.18724-0.27293 0.12561-0.50361 0.29348-0.69261 0.50537-0.189 0.2113-0.33398 0.46017-0.43611 0.74602-0.10213 0.28585-0.1532 0.5893-0.1532 0.91096 0 0.32165 0.051065 0.62511 0.1532 0.91096 0.10213 0.28585 0.2477 0.53472 0.43611 0.74602 0.189 0.2113 0.41909 0.37976 0.69261 0.50537 0.27352 0.12502 0.58285 0.18724 0.93033 0.18724 0.33163 0 0.63274-0.05987 0.90333-0.17961 0.27059-0.11915 0.50243-0.28409 0.69613-0.49363 0.1937-0.20896 0.34454-0.45665 0.45137-0.7425 0.10741-0.28526 0.16083-0.59693 0.16083-0.93385 0-0.33633-0.054-0.648-0.16083-0.93326-0.10741-0.28585-0.25767-0.53296-0.45137-0.7425-0.1937-0.20954-0.42613-0.37389-0.69613-0.49422-0.27059-0.11974-0.5717-0.17961-0.90333-0.17961zm9.0397-1.5079c0.51007 0 0.97846 0.093326 1.404 0.27939 0.42613 0.18665 0.79122 0.44902 1.0947 0.78828 0.30346 0.33926 0.54059 0.74543 0.71198 1.2173 0.1708 0.47191 0.2565 0.99372 0.2565 1.5654 0 0.10213-0.0029348 0.20367-0.0076304 0.3058-0.0052826 0.10213-0.012913 0.19898-0.022891 0.29113h-5.4188c0.050478 0.33163 0.14498 0.61454 0.2835 0.84933 0.13793 0.23478 0.30287 0.4273 0.49774 0.57815 0.1937 0.15026 0.41028 0.26178 0.65035 0.3328 0.24007 0.071609 0.49011 0.10683 0.75013 0.10683 0.36743 0 0.73604-0.066913 1.1058-0.2025 0.36978-0.135 0.70787-0.32517 1.0143-0.57052l0.79591 1.1405c-0.44902 0.3827-0.92504 0.65093-1.4275 0.80354-0.50243 0.1532-1.0319 0.23009-1.5883 0.23009-0.55115 0-1.0559-0.092152-1.5155-0.27528-0.459-0.18372-0.8552-0.44433-1.1868-0.78065-0.33163-0.33691-0.5893-0.74309-0.77302-1.2173-0.18372-0.47485-0.27528-1.0025-0.27528-1.5848 0-0.5717 0.08863-1.0947 0.26765-1.5689 0.17902-0.47485 0.42848-0.88161 0.75013-1.2209s0.70493-0.60163 1.1516-0.78828c0.44726-0.18607 0.94089-0.27939 1.4815-0.27939zm4.2314 7.5236v-0.36861h0.1485v-0.07513h-0.37859v0.07513h0.1485v0.36861h0.081587zm0.73546 0v-0.44491h-0.11622l-0.13383 0.3058-0.13383-0.3058h-0.11622v0.44491h0.082174v-0.33574l0.12502 0.28937h0.085109l0.12502-0.28996v0.33633h0.082761zm-4.9973-6.1002c-0.28585 0-0.53941 0.043435-0.76187 0.12972-0.22187 0.08687-0.41322 0.21072-0.57404 0.37154-0.16024 0.16024-0.2923 0.35217-0.39443 0.57404-0.10213 0.22187-0.17315 0.46546-0.21424 0.73076h3.8041c-0.08687-0.5717-0.29054-1.0154-0.6122-1.3318-0.32107-0.31578-0.73722-0.47426-1.2473-0.47426z" fill="#F79E1B"/>
                                    <path d="m13.008 11.557h-1.7943v-9.146l-3.247 8.0577h-1.8894l-3.247-7.9709v9.0585h-1.7943v-11.115h2.7552l3.2312 7.9392 3.2312-7.9392h2.7552v11.115h-5.869e-4zm9.4477 0h-1.6593v-0.91272c-0.26472 0.33867-0.59283 0.60867-0.98433 0.80941-0.3915 0.20133-0.86048 0.30228-1.4052 0.30228-0.53472 0-1.0319-0.099196-1.4926-0.29759-0.46076-0.19898-0.86283-0.47543-1.2068-0.82996s-0.61396-0.77654-0.80941-1.2661c-0.19604-0.48952-0.29407-1.0254-0.29407-1.6077 0-0.58226 0.098022-1.1182 0.29407-1.6083 0.19546-0.48893 0.46546-0.91154 0.80941-1.2661s0.74602-0.63157 1.2068-0.82996c0.46076-0.19839 0.95791-0.29759 1.4926-0.29759 0.54528 0 1.0137 0.10213 1.4052 0.3058 0.3915 0.20367 0.71961 0.47485 0.98433 0.81352v-0.92093h1.6593v7.6058zm-3.8504-6.2405c-0.3598 0-0.68146 0.065152-0.96437 0.19428-0.28291 0.12972-0.52298 0.30463-0.71843 0.52415-0.19604 0.22011-0.34689 0.4772-0.45254 0.7742-0.10624 0.29641-0.15907 0.61161-0.15907 0.945 0 0.33339 0.052826 0.648 0.15907 0.94441 0.10565 0.29641 0.2565 0.55467 0.45254 0.7742 0.19546 0.22011 0.43552 0.39443 0.71843 0.52415 0.28291 0.12913 0.60457 0.19428 0.96437 0.19428 0.34396 0 0.65622-0.062217 0.93678-0.18665 0.28057-0.12443 0.52122-0.29465 0.72254-0.51183 0.20074-0.21717 0.35687-0.47367 0.46839-0.77009 0.11093-0.29641 0.1667-0.61924 0.1667-0.96848 0-0.34983-0.055761-0.67265-0.1667-0.96907-0.11152-0.29641-0.26765-0.55291-0.46839-0.77009-0.20133-0.21659-0.44198-0.38739-0.72254-0.51183s-0.59283-0.18665-0.93678-0.18665zm11.471 0.54c-0.11622-0.068087-0.25943-0.14146-0.42848-0.21835-0.16963-0.076891-0.35746-0.14674-0.56348-0.21072-0.20661-0.063391-0.42496-0.11622-0.65504-0.15907-0.23067-0.042261-0.46428-0.063391-0.70259-0.063391-0.45548 0-0.80824 0.083348-1.06 0.25004-0.25122 0.1667-0.37683 0.38563-0.37683 0.65504 0 0.13207 0.03287 0.243 0.099196 0.33339 0.066326 0.090391 0.15496 0.16435 0.26589 0.22246 0.11152 0.058109 0.24359 0.10448 0.39678 0.13911 0.15378 0.03463 0.31754 0.065152 0.49246 0.090978l0.78593 0.11915c0.83113 0.1215 1.4791 0.36391 1.9452 0.72607 0.46604 0.36215 0.69907 0.86928 0.69907 1.5202 0 0.36509-0.078065 0.70024-0.2342 1.0043-0.15613 0.30404-0.38093 0.56641-0.675 0.78593-0.29348 0.22011-0.65622 0.39033-1.0876 0.51241-0.43141 0.1215-0.91976 0.18196-1.465 0.18196-0.19604 0-0.42378-0.011739-0.68263-0.035217-0.25943-0.024065-0.53472-0.071609-0.82585-0.14263-0.29113-0.071609-0.58754-0.1708-0.88924-0.29759-0.3017-0.12737-0.59048-0.29407-0.86517-0.50009l0.77009-1.2467c0.13735 0.10624 0.28702 0.20485 0.44843 0.29759 0.16141 0.092739 0.34396 0.17491 0.54763 0.24593 0.20367 0.071609 0.42907 0.12913 0.675 0.1708 0.24652 0.042261 0.52533 0.063391 0.83759 0.063391 0.5717 0 1.0025-0.083348 1.2942-0.25004 0.29113-0.1667 0.4367-0.39326 0.4367-0.67911 0-0.21659-0.10624-0.39561-0.31754-0.53589-0.21189-0.1397-0.54528-0.24183-1.0002-0.30522l-0.79415-0.1033c-0.84698-0.1168-1.4885-0.36391-1.9252-0.7425-0.4367-0.378-0.65504-0.87457-0.65504-1.4885 0-0.37565 0.072783-0.71433 0.21835-1.016 0.14557-0.3017 0.35452-0.55702 0.62687-0.76657 0.27293-0.20896 0.60222-0.37037 0.98843-0.48424 0.38622-0.11387 0.82291-0.17022 1.3101-0.17022 0.59811 0 1.1616 0.069848 1.691 0.21072 0.52943 0.1397 0.99254 0.33691 1.3893 0.59107l-0.71491 1.2948zm7.8758-0.39737h-2.9137v3.311c0 0.25357 0.031696 0.47074 0.095087 0.65093s0.14967 0.32693 0.25826 0.4408c0.108 0.11387 0.23537 0.19722 0.38093 0.25004 0.14557 0.052826 0.30287 0.079239 0.4725 0.079239 0.25943 0 0.52239-0.049891 0.79004-0.15085 0.26765-0.10037 0.51476-0.22187 0.7425-0.3645l0.65857 1.3253c-0.30698 0.20661-0.65211 0.38446-1.036 0.53178-0.38387 0.1485-0.81646 0.22246-1.2983 0.22246-0.86283 0-1.5337-0.23948-2.0127-0.71843-0.47896-0.47896-0.71843-1.2238-0.71843-2.2351v-3.3427h-1.5167v-1.5079h1.5167v-2.3026h1.667v2.3026h2.9137v1.5079h5.869e-4zm5.1048-1.7069c0.52943 0 1.0148 0.096848 1.4568 0.28996 0.44198 0.19311 0.82057 0.46604 1.1358 0.81763 0.31461 0.35217 0.56054 0.77302 0.73839 1.262 0.17726 0.48952 0.26589 1.0313 0.26589 1.6235 0 0.10624-0.0029348 0.21189-0.0082174 0.31754-0.0052826 0.10624-0.0135 0.20661-0.023478 0.3017h-5.6213c0.052826 0.34396 0.15085 0.63802 0.29348 0.88161 0.14263 0.243 0.31461 0.44315 0.51593 0.59928 0.20133 0.15613 0.42613 0.27176 0.675 0.34513 0.24887 0.074544 0.5083 0.11093 0.77772 0.11093 0.38093 0 0.76363-0.069848 1.1475-0.21013 0.38387-0.1397 0.73428-0.33691 1.0518-0.59165l0.82585 1.1827c-0.46604 0.39678-0.95967 0.675-1.4809 0.83407-0.52122 0.15848-1.0706 0.2383-1.647 0.2383-0.5717 0-1.0958-0.095674-1.5719-0.28585-0.47661-0.19017-0.88689-0.46017-1.2308-0.80941-0.34396-0.34983-0.61161-0.77009-0.80178-1.2625-0.19017-0.49187-0.28585-1.0401-0.28585-1.6429 0-0.59283 0.092739-1.1358 0.27763-1.6282 0.18548-0.49187 0.44491-0.91389 0.7783-1.2661s0.73135-0.62452 1.195-0.81763c0.46311-0.19311 0.97493-0.28996 1.5361-0.28996zm-0.031696 1.4774c-0.29641 0-0.55996 0.045196-0.79004 0.135-0.23009 0.089804-0.42848 0.21835-0.59517 0.38504-0.1667 0.16728-0.30346 0.36509-0.40911 0.59576-0.10624 0.23009-0.17961 0.48307-0.22246 0.75776h3.9461c-0.089804-0.59224-0.3017-1.053-0.63509-1.3817-0.33398-0.32811-0.76539-0.49187-1.2942-0.49187zm9.376-1.4774c0.25415 0 0.48307 0.017022 0.68674 0.051652 0.20367 0.03463 0.40089 0.08863 0.59107 0.16259l-0.39678 1.6435c-0.17433-0.089804-0.378-0.15907-0.61161-0.20661-0.23243-0.046957-0.44961-0.071022-0.65093-0.071022-0.26472 0-0.5083 0.045196-0.73076 0.135-0.22187 0.089804-0.41263 0.22187-0.57111 0.39678-0.15907 0.17433-0.28291 0.38857-0.3733 0.64272-0.089804 0.25357-0.135 0.54235-0.135 0.86517v4.1838h-1.6593v-7.6058h1.6429v0.85754c0.25415-0.36509 0.56935-0.63215 0.945-0.80178 0.37624-0.16846 0.79709-0.25357 1.2631-0.25357zm5.6765 0c0.5717 0 1.1041 0.10213 1.5959 0.3058 0.49187 0.20367 0.90743 0.50713 1.2461 0.9092l-1.0642 1.1358c-0.27-0.25415-0.54939-0.44843-0.84052-0.58343-0.2923-0.135-0.61983-0.2025-0.98491-0.2025-0.31696 0-0.61337 0.059283-0.88924 0.17902-0.27528 0.11857-0.51359 0.28526-0.71433 0.50009-0.20074 0.21424-0.35863 0.47074-0.47191 0.7695-0.11446 0.29935-0.1708 0.62863-0.1708 0.98902 0 0.3598 0.056348 0.68909 0.1708 0.98843 0.11328 0.29876 0.27117 0.55526 0.47191 0.77009 0.20074 0.21424 0.43904 0.38093 0.71433 0.4995 0.27528 0.11915 0.5717 0.17902 0.88924 0.17902 0.36509 0 0.70611-0.075717 1.0237-0.22598 0.31754-0.15085 0.5987-0.34043 0.8417-0.56817l1.0242 1.1434c-0.34865 0.40265-0.76715 0.70493-1.2537 0.9092-0.48776 0.20367-1.016 0.3058-1.5883 0.3058-0.6028 0-1.151-0.10213-1.6429-0.3058-0.49246-0.20367-0.9133-0.48424-1.2625-0.84111-0.34924-0.35746-0.61924-0.77948-0.80941-1.2667-0.19017-0.48717-0.28585-1.016-0.28585-1.5877 0-0.5717 0.095674-1.1011 0.28585-1.5883 0.19017-0.48717 0.46017-0.9092 0.80941-1.2667 0.34924-0.35687 0.77009-0.63743 1.2625-0.84111 0.49187-0.20426 1.0395-0.30639 1.6429-0.30639zm11.686 7.8048h-1.6593v-0.91272c-0.26472 0.33867-0.59283 0.60867-0.98433 0.80941-0.39209 0.20133-0.85989 0.30228-1.4052 0.30228-0.53472 0-1.0325-0.099196-1.4926-0.29759-0.46017-0.19898-0.86283-0.47543-1.2068-0.82996s-0.61396-0.77654-0.81-1.2661c-0.19546-0.48952-0.29407-1.0254-0.29407-1.6077 0-0.58226 0.098609-1.1182 0.29407-1.6083 0.19604-0.48893 0.46604-0.91154 0.81-1.2661s0.74602-0.63157 1.2068-0.82996c0.46017-0.19839 0.95791-0.29759 1.4926-0.29759 0.54528 0 1.0137 0.10213 1.4052 0.3058 0.3915 0.20367 0.71961 0.47485 0.98433 0.81352v-0.92093h1.6593v7.6058zm-3.8504-6.2405c-0.3598 0-0.68146 0.065152-0.96437 0.19428-0.28291 0.12972-0.52239 0.30463-0.71843 0.52415-0.19546 0.22011-0.3463 0.4772-0.45254 0.7742-0.10565 0.29641-0.15907 0.61161-0.15907 0.945 0 0.33339 0.053413 0.648 0.15907 0.94441 0.10624 0.29641 0.25709 0.55467 0.45254 0.7742 0.19604 0.22011 0.43552 0.39443 0.71843 0.52415 0.2835 0.12913 0.60457 0.19428 0.96437 0.19428 0.34454 0 0.65622-0.062217 0.93737-0.18665 0.28057-0.12443 0.52063-0.29465 0.72254-0.51183 0.20074-0.21717 0.35687-0.47367 0.46839-0.77009 0.11152-0.29641 0.16728-0.61924 0.16728-0.96848 0-0.34983-0.055761-0.67265-0.16728-0.96907-0.11093-0.29641-0.26707-0.55291-0.46839-0.77009-0.20133-0.21659-0.44198-0.38739-0.72254-0.51183-0.28115-0.12443-0.59341-0.18665-0.93737-0.18665zm10.146-1.5642c0.25415 0 0.48307 0.017022 0.68674 0.051652 0.20367 0.03463 0.40089 0.08863 0.59165 0.16259l-0.39678 1.6435c-0.17433-0.089804-0.378-0.15907-0.61102-0.20661-0.23302-0.046957-0.4502-0.071022-0.65152-0.071022-0.26472 0-0.5083 0.045196-0.73017 0.135-0.22246 0.089804-0.41322 0.22187-0.5717 0.39678-0.15907 0.17433-0.2835 0.38857-0.3733 0.64272-0.089804 0.25357-0.135 0.54235-0.135 0.86517v4.1838h-1.6593v-7.6058h1.6435v0.85754c0.25357-0.36509 0.56876-0.63215 0.94441-0.80178 0.37624-0.16846 0.79709-0.25357 1.2625-0.25357zm5.4464 0c0.54528 0 1.0131 0.10213 1.4052 0.3058 0.3915 0.20367 0.71961 0.47485 0.98433 0.81352v-4.7473h1.6593v11.432h-1.6593v-0.91272c-0.26472 0.33867-0.59283 0.60867-0.98433 0.80941-0.39209 0.20133-0.85989 0.30228-1.4052 0.30228-0.53472 0-1.0325-0.099196-1.4926-0.29759-0.46017-0.19898-0.86283-0.47543-1.2068-0.82996-0.34454-0.35452-0.61396-0.77654-0.81-1.2661-0.19546-0.48952-0.29348-1.0254-0.29348-1.6077s0.098022-1.1182 0.29348-1.6083c0.19604-0.48893 0.46604-0.91154 0.81-1.2661s0.74602-0.63157 1.2068-0.82996c0.46076-0.1978 0.95791-0.29759 1.4926-0.29759zm5.987 7.101c0.068087 0 0.13148 0.012913 0.19135 0.038152 0.05987 0.025239 0.11152 0.05987 0.15672 0.10389 0.044609 0.044022 0.079826 0.095087 0.10565 0.15437 0.025826 0.058696 0.038739 0.1215 0.038739 0.18783s-0.012913 0.12913-0.038739 0.18724-0.061043 0.10976-0.10565 0.15378c-0.044609 0.044022-0.096848 0.078652-0.15672 0.10448-0.05987 0.025826-0.12326 0.038739-0.19135 0.038739-0.069261 0-0.13441-0.012913-0.19487-0.038739s-0.1127-0.060456-0.1573-0.10448c-0.044609-0.044022-0.079239-0.095087-0.10507-0.15378-0.025826-0.058696-0.038152-0.12091-0.038152-0.18724s0.012913-0.12913 0.038152-0.18783c0.025826-0.058696 0.060456-0.11035 0.10507-0.15437 0.044022-0.044022 0.096848-0.078652 0.1573-0.10389s0.12502-0.038152 0.19487-0.038152zm0 0.86048c0.052239 0 0.10096-0.0099783 0.14615-0.029348 0.045196-0.019956 0.084522-0.046956 0.11857-0.080413 0.034044-0.034043 0.060457-0.073956 0.079826-0.11974 0.01937-0.045783 0.028761-0.0945 0.028761-0.14733 0-0.052239-0.0093913-0.10096-0.028761-0.14674-0.01937-0.045783-0.045783-0.085696-0.079826-0.11974-0.034043-0.034044-0.07337-0.060457-0.11857-0.079826-0.045196-0.01937-0.093913-0.028761-0.14615-0.028761-0.052826 0-0.10272 0.0093913-0.14909 0.028761-0.04637 0.01937-0.086283 0.045783-0.12033 0.079826-0.034044 0.034043-0.060456 0.073956-0.079826 0.11974s-0.028761 0.0945-0.028761 0.14674 0.0093913 0.10096 0.028761 0.14733c0.01937 0.045783 0.045783 0.085696 0.079826 0.11974 0.034044 0.034044 0.073956 0.061044 0.12033 0.080413 0.04637 0.019956 0.096261 0.029348 0.14909 0.029348zm0.028174-0.6028c0.057522 0 0.10213 0.012913 0.13324 0.038739s0.046956 0.060456 0.046956 0.10507c0 0.036978-0.012326 0.068087-0.037565 0.092152s-0.060456 0.038739-0.10624 0.044609l0.14674 0.16963h-0.11504l-0.13617-0.16846h-0.044022v0.16846h-0.096261v-0.44902h0.20837v-0.0011739zm-0.11093 0.083935v0.11974h0.11035c0.025239 0 0.045196-0.0046957 0.060456-0.014674 0.014674-0.0099783 0.022304-0.025239 0.022304-0.045783 0-0.019956-0.0076305-0.03463-0.022304-0.044609-0.015261-0.0099783-0.035217-0.014674-0.060456-0.014674h-0.11035zm-5.7058-5.8784c-0.3598 0-0.68146 0.065152-0.96437 0.19428-0.28291 0.12972-0.52239 0.30463-0.71843 0.52415-0.19546 0.22011-0.3463 0.4772-0.45254 0.7742-0.10565 0.29641-0.15907 0.61161-0.15907 0.945 0 0.33339 0.053413 0.648 0.15907 0.94441 0.10624 0.29641 0.25709 0.55467 0.45254 0.7742 0.19604 0.22011 0.43552 0.39443 0.71843 0.52415 0.28291 0.12913 0.60457 0.19428 0.96437 0.19428 0.34454 0 0.65622-0.062217 0.93737-0.18665 0.28057-0.12443 0.52063-0.29465 0.72254-0.51183 0.20074-0.21717 0.35687-0.47367 0.46839-0.77009 0.11152-0.29641 0.16728-0.61924 0.16728-0.96848 0-0.34983-0.055761-0.67265-0.16728-0.96907-0.11093-0.29641-0.26707-0.55291-0.46839-0.77009-0.20133-0.21659-0.44198-0.38739-0.72254-0.51183-0.28115-0.12443-0.59283-0.18665-0.93737-0.18665z" fill="#EB001B"/>
                                </g>
                            </g>
                        </g>
                    </g>
                </g>
            </g>
        </g>
    </g>
</svg>
