<?xml version="1.0" encoding="UTF-8"?>
<svg preserveAspectRatio="none" viewBox="0 0 2225 400" xmlns="http://www.w3.org/2000/svg">
  <g transform="translate(-631.15 153.56)">
    <path class="logo-primary" d="m1226.8 142.5v-95h23 23v8.5c0 4.675 0.2503 8.5 0.5561 8.5 0.3059 0 3.3434-2.2716 6.75-5.0481 7.2942-5.9448 19.573-12.234 28.694-14.697 9.7169-2.6237 32.727-2.303 43.442 0.6055 13.657 3.7071 21.971 8.4763 31.558 18.104 9.9111 9.9526 14.767 18.73 18.129 32.769 2.4485 10.225 2.8834 27.957 0.9386 38.267-5.4057 28.654-26.219 49.398-55.68 55.494-23.64 4.8914-51.381-0.7614-65.541-13.356-2.5594-2.2762-4.9219-4.1386-5.25-4.1386s-0.5966 14.625-0.5966 32.5v32.5h-24.5-24.5v-95zm103.22 19.27c14.695-6.63 22.753-22.486 22.753-44.77 0-21.725-6.8382-35.852-20.757-42.885-14.807-7.4811-33.517-5.1154-44.933 5.6814-8.833 8.3539-13.245 20.747-13.245 37.204 0 24.6 10.628 42.072 28.348 46.604 1.7146 0.4385 7.6173 0.684 13.117 0.5456 7.6617-0.1928 11.103-0.7493 14.717-2.3799zm134.78 29.558c-20.282-1.6085-33.992-10.039-41.13-25.292-5.5325-11.823-5.8336-15.387-5.8526-69.286l-0.017-49.25h24.439 24.439l0.3272 47.75c0.3218 46.966 0.3646 47.843 2.6022 53.417 2.9258 7.288 5.3958 10.361 10.538 13.111 3.6026 1.9264 5.6857 2.2221 15.656 2.2221 10.574 0 11.914-0.2183 16.638-2.7101 6.3631-3.3562 11.646-9.4011 14.604-16.711 2.2127-5.4673 2.264-6.4978 2.5549-51.329l0.297-45.75h24.953 24.953v69.5 69.5h-25-25v-8c0-4.4-0.2227-8-0.495-8-0.2722 0-3.3097 2.2755-6.75 5.0566-15.466 12.503-34.259 17.634-57.755 15.771zm353.5 0.054c-16.671-1.2132-30.991-6.9821-38.466-15.496-12.283-13.989-11.602-36.133 1.5024-48.869 11.325-11.007 29.409-16.166 71.964-20.53 27.348-2.8047 31.45-4.9245 31.485-16.269 0.019-6.2423-1.8476-10.512-6.309-14.429-8.4727-7.4391-29.709-8.2061-41.999-1.5168-5.3041 2.8869-9.0709 8.226-10.214 14.478l-0.6858 3.75h-23.45-23.45l0.6917-4.75c0.943-6.4754 3.8507-14.031 7.5469-19.612 11.633-17.562 40.474-26.87 78.384-25.296 23.407 0.97187 38.716 4.8897 50.772 12.994 7.7691 5.2225 12.966 12.074 15.768 20.788 2.1304 6.6256 2.1697 7.7618 1.8187 52.574-0.3423 43.709-0.2701 45.98 1.5803 49.71 1.1782 2.3747 3.042 4.3245 4.75 4.9692 1.5461 0.5836 2.811 1.4124 2.811 1.8418s-11.663 0.7808-25.918 0.7808h-25.918l-2.1631-6.5c-1.1897-3.575-2.6173-6.5-3.1726-6.5-0.5552 0-2.7625 1.5005-4.905 3.3344-8.3476 7.1453-25.099 13.268-38.922 14.226-4.125 0.2859-8.85 0.6389-10.5 0.7844-1.65 0.1456-7.5-0.063-13-0.4631zm45.647-29.758c7.5096-2.9125 14.099-8.8836 17.52-15.876 2.3225-4.7469 2.8441-7.2898 3.1725-15.464 0.218-5.4294-0.01-9.7833-0.5081-9.7833-0.4955 0-3.49 0.91-6.6545 2.0222s-12.824 3.1149-21.465 4.4504c-17.187 2.6561-22.924 4.308-27.752 7.9905-7.8546 5.9911-8.6107 17.565-1.5641 23.942 1.155 1.0453 4.4636 2.7422 7.3524 3.7709 7.2155 2.5696 21.892 2.0528 29.899-1.0527zm503.85 29.748c-22.535-1.539-37.824-9.6355-44.688-23.666-3.8322-7.8325-4.4248-20.263-1.3543-28.407 5.8242-15.448 22.26-24.576 53.542-29.737 3.3-0.5445 14.775-1.9065 25.5-3.0267 22.5-2.3501 25.792-3.099 29.377-6.6838 2.3465-2.3465 2.6234-3.3852 2.6234-9.8392 0-9.1619-2.212-12.869-10-16.758-10.747-5.3674-30.378-4.3574-39.492 2.0318-4.7439 3.3257-8.4692 9.4519-8.492 13.965l-0.016 3.25h-23.638-23.638l0.6459-5.75c0.3873-3.4477 2.045-8.6107 4.1403-12.895 9.9498-20.344 35.656-31.342 73.279-31.353 41.666-0.0114 66.587 11.169 74.822 33.568 1.6539 4.4988 1.8154 9.1323 1.8504 53.1 0.038 47.312 0.076 48.221 2.1347 51 1.153 1.5562 3.0735 3.3248 4.2677 3.9304s2.4633 1.3931 2.8203 1.75c0.3569 0.3569-11.284 0.649-25.869 0.649h-26.518l-1.7594-6.5c-0.9677-3.575-2.1788-6.5-2.6914-6.5-0.5125 0-3.275 1.7476-6.1389 3.8836-14.879 11.097-35.034 15.741-60.707 13.988zm45.5-30.214c6.6938-3.0777 13.74-9.3522 16.459-14.657 0.9869-1.925 2.2997-5.8847 2.9175-8.7993 1.3172-6.2144 1.4959-17.201 0.2798-17.201-0.4639 0-3.4986 0.9135-6.7438 2.03s-13.23 3.1266-22.188 4.4668c-17.57 2.6289-23.777 4.7201-28.995 9.7693-6.923 6.6992-6.1926 18.122 1.4611 22.852 6.1101 3.7763 11.226 4.8754 21.308 4.5778 7.8792-0.2326 10.524-0.7511 15.5-3.0391zm-1608.5 8.5928c-8e-3 -58.347-9.3397-89.792-33.922-114.3-15.74-15.696-35.041-25.091-62.819-30.578-5.4702-1.0805-16.82-1.6863-38.507-2.0554l-30.75-0.52328v-77.894-77.894h160.5 160.5v160.5 160.5h-77.5-77.5l-2e-3 -17.75zm89.758-143-0.25507-94.75-94.75-0.25507-94.75-0.25508v13.46 13.46l3.75 0.61123c40.719 6.6369 66.61 16.763 92.253 36.079 33.591 25.304 56.304 64.43 64.753 111.55l2.6638 14.855h13.296 13.296l-0.25508-94.75zm109.24 63.75v-96h98 98v96 96h-27-27v-77.5-77.5h-44-44v77.5 77.5h-27-27v-96zm598 26.486v-69.625l59.75 0.37776c57.275 0.36212 60.068 0.46602 67.419 2.5082 9.7349 2.7043 14.344 5.08 19.216 9.9057 5.6798 5.6248 7.9384 11.352 8.0243 20.348 0.06 6.2568-0.3876 8.4383-2.6989 13.161-4.5576 9.3116-13.465 15.796-25.961 18.898-2.6125 0.6485-4.75 1.4934-4.75 1.8775 0 0.3842 3.3092 1.4786 7.3537 2.4321 14.176 3.3421 24.564 9.7533 28.654 17.686 2.5661 4.9764 4.2563 15.312 3.4915 21.352-1.8247 14.412-10.397 22.843-28.331 27.864-7.3997 2.0719-9.8558 2.1595-69.919 2.4937l-62.25 0.3464v-69.625zm99.303 40.614c6.4398-2.0703 9.8866-5.9414 10.381-11.659 0.8636-9.9958-5.2578-15.662-18.822-17.423-4.0488-0.5256-14.899-0.9696-24.112-0.9866l-16.75-0.031v16.082 16.082l22.75-0.4208c14.021-0.2594 24.209-0.89 26.553-1.6436zm-3.1243-57.792c11.593-5.2831 9.8208-19.626-2.8757-23.278-2.0918-0.60165-12.691-1.3742-23.553-1.7168l-19.75-0.62288v14.256 14.256l20.75-0.3811c18.564-0.341 21.243-0.6058 25.429-2.5134zm297.82 30.692v-56h-27.5-27.5v-13.5-13.5h80 80v13.5 13.5h-27.5-27.5v56 56h-25-25v-56zm116-40v-96h89.5 89.5v18.5 18.5h-63-63v17.404 17.404l39.75 0.48337c41.873 0.50918 46.206 0.92142 61.221 5.8243 23.058 7.5287 38.238 23.209 41.937 43.318 5.0031 27.197-5.2707 48.457-28.935 59.875-20.688 9.9825-27.471 10.678-104.22 10.685l-62.75 0.01v-96zm120.05 57.797c13.083-3.3954 18.972-9.7357 18.932-20.385-0.04-10.783-4.7048-17.05-16.169-21.724-4.9968-2.0371-7.2062-2.1836-37.559-2.4891l-32.25-0.3246v23.668 23.669l30.75-0.4878c22.142-0.3513 32.302-0.8907 36.296-1.9271zm272.95-31.297v-69.5h25 25v26.5 26.5h30.5 30.5v-26.5-26.5h24.5 24.5v69.5 69.5h-24.5-24.5v-29.5-29.5h-30.5-30.5v29.5 29.5h-25-25v-69.5zm183 0v-69.5h24.5 24.5v28c0 22.368 0.2626 28 1.3055 28 0.718 0 13.358-12.6 28.088-28l26.782-28h27.151 27.151l-5.4892 5.3408c-3.019 2.9374-18.435 17.614-34.258 32.615l-28.769 27.274 13.269 13.873c7.2977 7.6303 23.334 24.228 35.637 36.885l22.369 23.012h-28.561-28.561l-27.1-30.5c-14.905-16.775-27.531-30.5-28.058-30.5-0.5901 0-0.9583 11.718-0.9583 30.5v30.5h-24.5-24.5v-69.5z" fill="#75B028"/>
    <path class="logo-secondary" d="m638.77 125v-62.5h62.5 62.5v62.5 62.5h-62.5-62.5v-62.5z"/>
  </g>
</svg>
