<?xml version="1.0" encoding="UTF-8"?>
<svg class="svg_visa" viewBox="0 0 54 27" xmlns="http://www.w3.org/2000/svg">
    <g fill="none" fill-rule="evenodd">
        <g transform="translate(-345 -32)" fill="#3B477D">
            <g>
                <g transform="translate(61 30)">
                    <g transform="translate(284 2)">
                        <g>
                            <g>
                                <g>
                                    <path d="m2.9802 9.4611l-2.8271-8.7004h1.2087l1.3511 4.2851c0.37178 1.1737 0.69294 2.2331 0.9255 3.2527h0.026895c0.24364-1.0069 0.60435-2.1044 0.98879-3.24l1.4666-4.2978h1.196l-3.0992 8.7004h-1.2372z"/>
                                    <path d="m7.9051 6.5435c0.026895 1.5358 1.003 2.1679 2.1358 2.1679 0.81001 0 1.2973-0.14135 1.7229-0.32241l0.19301 0.81318c-0.39868 0.17947-1.0805 0.38753-2.0709 0.38753-1.9159 0-3.0613-1.2642-3.0613-3.1495 0-1.8852 1.1059-3.3686 2.9189-3.3686 2.0314 0 2.5724 1.7947 2.5724 2.943 0 0.23188-0.026895 0.41294-0.037969 0.52888h-4.3728zm3.3176-0.81318c0.014238-0.72265-0.29584-1.8471-1.5678-1.8471-1.1454 0-1.6453 1.0578-1.7355 1.8471h3.3033z"/>
                                    <path d="m13.203 5.1634c0-0.73535-0.012656-1.3675-0.050626-1.9488h0.99037l0.037969 1.2261h0.050626c0.28319-0.83859 0.96347-1.3675 1.7229-1.3675 0.12815 0 0.21991 0.012706 0.32116 0.038118v1.0721c-0.11549-0.027-0.23098-0.039706-0.38602-0.039706-0.79577 0-1.3606 0.60671-1.5156 1.4596-0.026895 0.15565-0.052208 0.33512-0.052208 0.52888v3.3305h-1.1185v-4.2994z"/>
                                    <path d="m18.206 1.458c0.012656 0.38753-0.27053 0.69724-0.71984 0.69724-0.39868 0-0.68187-0.30971-0.68187-0.69724 0-0.40024 0.29584-0.70994 0.70718-0.70994 0.42399 0 0.69452 0.31129 0.69452 0.70994zm-1.2609 1.755h1.1328v6.2465h-1.1328v-6.2465z"/>
                                    <path d="m19.557 9.4611v-5.3825h-0.87488v-0.86559h0.87488v-0.297c0-0.87671 0.19301-1.6772 0.71984-2.1822 0.42399-0.41294 0.98879-0.57971 1.5172-0.57971 0.39868 0 0.74515 0.090529 0.96347 0.18106l-0.15504 0.87671c-0.16612-0.077824-0.39868-0.14135-0.71984-0.14135-0.96347 0-1.2087 0.85129-1.2087 1.8058v0.33512h1.503v0.86559h-1.503v5.3825h-1.1169v0.0015882z"/>
                                    <path d="m24.553 1.458c0.014238 0.38753-0.27053 0.69724-0.71984 0.69724-0.39868 0-0.68187-0.30971-0.68187-0.69724 0-0.40024 0.29743-0.70994 0.70718-0.70994 0.42399 0 0.69452 0.31129 0.69452 0.70994zm-1.2593 1.755h1.1312v6.2465h-1.1312v-6.2465z"/>
                                    <path d="m26.418 6.5435c0.026895 1.5358 1.003 2.1679 2.1358 2.1679 0.81001 0 1.2973-0.14135 1.7229-0.32241l0.19301 0.81318c-0.39868 0.17947-1.0821 0.38753-2.0709 0.38753-1.9159 0-3.0613-1.2642-3.0613-3.1495 0-1.8852 1.1059-3.3686 2.9189-3.3686 2.0314 0 2.5708 1.7947 2.5708 2.943 0 0.23188-0.025313 0.41294-0.037969 0.52888h-4.3712zm3.316-0.81318c0.012656-0.72265-0.29584-1.8471-1.5678-1.8471-1.1454 0-1.6453 1.0578-1.7371 1.8471h3.3049z"/>
                                    <path d="m37.091 0.297v7.5505c0 0.55588 0.012656 1.188 0.050626 1.6136h-1.0157l-0.052208-1.0848h-0.026895c-0.34647 0.69565-1.1043 1.2245-2.1215 1.2245-1.503 0-2.661-1.2769-2.661-3.1749-0.012656-2.079 1.2736-3.3559 2.7907-3.3559 0.95082 0 1.5947 0.45265 1.8763 0.95453h0.026895v-3.7292h1.1328v0.0015882zm-1.1328 5.4588c0-0.14135-0.012656-0.33512-0.050626-0.47806-0.16612-0.72265-0.7847-1.3166-1.6327-1.3166-1.1691 0-1.8637 1.0324-1.8637 2.4141 0 1.2642 0.617 2.3109 1.8384 2.3109 0.75781 0 1.4523-0.50347 1.658-1.3564 0.037969-0.15406 0.050626-0.30971 0.050626-0.49076v-1.0832z"/>
                                    <path d="m41.28 9.4611c0.026895-0.42724 0.050626-1.0594 0.050626-1.6136v-7.5505h1.1185v3.9229h0.026895c0.39868-0.69565 1.1185-1.1483 2.1215-1.1483 1.5441 0 2.6357 1.2912 2.6231 3.1876 0 2.2331-1.4017 3.3416-2.7907 3.3416-0.90019 0-1.6216-0.34782-2.082-1.1737h-0.037969l-0.052208 1.0324h-0.97771v0.0015882zm1.1691-2.5046c0 0.14135 0.026895 0.28429 0.052208 0.41294 0.21832 0.78618 0.8733 1.3278 1.696 1.3278 1.1834 0 1.889-0.96724 1.889-2.3998 0-1.2515-0.64232-2.3236-1.851-2.3236-0.77046 0-1.4903 0.52888-1.7229 1.3945-0.026895 0.12865-0.064864 0.28429-0.064864 0.46376v1.1245h0.0015821z"/>
                                    <path d="m48.455 3.213l1.3622 3.6911c0.14239 0.41294 0.29743 0.90371 0.39868 1.2785h0.026895c0.11549-0.37482 0.24364-0.85288 0.39868-1.3039l1.234-3.6656h1.196l-1.6975 4.4534c-0.81001 2.1425-1.3622 3.24-2.1342 3.9102-0.55372 0.49076-1.1059 0.68453-1.389 0.73535l-0.28319-0.95612c0.28319-0.09053 0.65497-0.27159 0.99037-0.55588 0.3085-0.24459 0.69294-0.68453 0.9524-1.2642 0.050626-0.11594 0.090177-0.20647 0.090177-0.27 0-0.065118-0.026895-0.15565-0.077521-0.297l-2.3019-5.7574h1.234v0.0015882z"/>
                                </g>
                                <g transform="translate(6.8195 13.442)">
                                    <path d="m12.1 0.2817l-3.4299 8.7067-1.3875-7.4028c-0.15979-0.82588-0.80368-1.3039-1.5188-1.3039h-5.6084l-0.075939 0.37006c1.1502 0.25412 2.4585 0.65594 3.2511 1.0879 0.48411 0.26682 0.62333 0.49553 0.77995 1.1261l2.6294 10.209h3.4853l5.3394-12.792h-3.4647v-0.0015882z"/>
                                    <polygon points="16.977 0.2817 14.255 13.073 17.55 13.073 20.27 0.2817"/>
                                    <path d="m24.597 3.8266c0.011074-0.45741 0.44614-0.94659 1.3985-1.0736 0.47462-0.061941 1.7735-0.108 3.2527 0.57018l0.57745-2.7095c-0.79261-0.29065-1.8162-0.57018-3.0834-0.57018-3.2606 0-5.5499 1.7407-5.5704 4.2311-0.017403 1.8392 1.639 2.8699 2.8857 3.483 1.2846 0.62418 1.7165 1.0244 1.7086 1.5882-0.0063283 0.85924-1.0236 1.2341-1.9697 1.2499-1.6596 0.025412-2.6199-0.44947-3.3888-0.80682l-0.59485 2.8048c0.7673 0.35418 2.1911 0.66388 3.6672 0.67976 3.4568 0 5.7223-1.7216 5.735-4.3772 0.012656-3.3782-4.6512-3.5624-4.618-5.0696"/>
                                    <path d="m34.14 8.5421l1.7513-4.8028 0.98562 4.8028h-2.737zm1.2514-8.2604c-0.63282 0-1.1676 0.36688-1.4049 0.93865l-4.9439 11.853h3.4631l0.68819-1.9106h4.2193l0.39551 1.9106h3.0565l-2.6579-12.792h-2.8161z"/>
                                </g>
                            </g>
                        </g>
                    </g>
                </g>
            </g>
        </g>
    </g>
</svg>
