<?xml version="1.0" encoding="UTF-8" standalone="no"?>
<svg
   xmlns:dc="http://purl.org/dc/elements/1.1/"
   xmlns:cc="http://creativecommons.org/ns#"
   xmlns:rdf="http://www.w3.org/1999/02/22-rdf-syntax-ns#"
   xmlns:svg="http://www.w3.org/2000/svg"
   xmlns="http://www.w3.org/2000/svg"
   id="svg118"
   version="1.1"
   viewBox="0 0 125.4625 24.409399"
   height="24.409399mm"
   width="125.4625mm">
  <defs
     id="defs112" />
  <metadata
     id="metadata115">
    <rdf:RDF>
      <cc:Work
         rdf:about="">
        <dc:format>image/svg+xml</dc:format>
        <dc:type
           rdf:resource="http://purl.org/dc/dcmitype/StillImage" />
        <dc:title></dc:title>
      </cc:Work>
    </rdf:RDF>
  </metadata>
  <g
     transform="translate(2.56e-8,-8.4215849)"
     id="layer1">
    <g
       id="flowRoot120"
       style="font-style:normal;font-variant:normal;font-weight:normal;font-stretch:normal;font-size:40px;line-height:1.25;font-family:Ubuntu;-inkscape-font-specification:Ubuntu;letter-spacing:0px;word-spacing:0px;fill:#000000;fill-opacity:1;stroke:none"
       transform="matrix(0.26458333,0,0,0.26458333,-7.3236666,-20.410714)"
       aria-label="fedirko.pro">
      <path
         id="path4889"
         style="fill:#39675a;fill-opacity:1"
         d="m 47.168,108.97247 q 3.936,0 6.72,0.576 2.88,0.576 4.032,1.056 l -1.632,7.68 q -1.152,-0.576 -3.264,-1.056 -2.112,-0.576 -5.184,-0.576 -6.24,0 -8.736,3.456 -2.496,3.36 -2.496,9.12 v 4.32 h 19.2 v 7.488 h -19.2 v 42.432 H 27.68 v -54.432 q 0,-9.6 4.704,-14.784 4.704,-5.28 14.784,-5.28 z" />
      <path
         id="path4891"
         style="fill:#39675a;fill-opacity:1"
         d="m 62.021,158.60447 q 0,-6.624 1.92,-11.52 1.92,-4.992 5.088,-8.256 3.168,-3.264 7.296,-4.896 4.128,-1.632 8.448,-1.632 10.08,0 15.456,6.336 5.376,6.24 5.376,19.104 0,0.576 0,1.536 0,0.864 -0.096,1.632 H 71.333 q 0.576,7.776 4.512,11.808 3.936,4.032 12.288,4.032 4.704,0 7.872,-0.768 3.264,-0.864 4.896,-1.632 l 1.248,7.488 q -1.632,0.864 -5.76,1.824 -4.032,0.96 -9.216,0.96 -6.528,0 -11.328,-1.92 -4.704,-2.016 -7.776,-5.472 -3.072,-3.456 -4.608,-8.16 -1.44,-4.8 -1.44,-10.464 z m 34.272,-4.896 q 0.096,-6.048 -3.072,-9.888 -3.072,-3.936 -8.544,-3.936 -3.072,0 -5.472,1.248 -2.304,1.152 -3.936,3.072 -1.632,1.92 -2.592,4.416 -0.864,2.496 -1.152,5.088 z" />
      <path
         id="path4893"
         style="fill:#39675a;fill-opacity:1"
         d="m 150.686,144.10847 q -1.632,-1.344 -4.704,-2.592 -3.072,-1.248 -6.72,-1.248 -3.84,0 -6.624,1.44 -2.688,1.344 -4.416,3.84 -1.728,2.4 -2.496,5.76 -0.768,3.36 -0.768,7.2 0,8.736 4.32,13.536 4.32,4.704 11.52,4.704 3.648,0 6.048,-0.288 2.496,-0.384 3.84,-0.768 z m 0,-33.6 8.928,-1.536 v 73.056 q -3.072,0.864 -7.872,1.728 -4.8,0.864 -11.04,0.864 -5.76,0 -10.368,-1.824 -4.608,-1.824 -7.872,-5.184 -3.264,-3.36 -5.088,-8.16 -1.728,-4.896 -1.728,-10.944 0,-5.76 1.44,-10.56 1.536,-4.8 4.416,-8.256 2.88,-3.456 7.008,-5.376 4.224,-1.92 9.6,-1.92 4.32,0 7.584,1.152 3.36,1.152 4.992,2.208 z" />
      <path
         id="path4895"
         style="fill:#39675a;fill-opacity:1"
         d="m 183.983,183.46847 h -8.928 v -49.92 h 8.928 z m -4.512,-58.944 q -2.4,0 -4.128,-1.536 -1.632,-1.632 -1.632,-4.32 0,-2.688 1.632,-4.224 1.728,-1.632 4.128,-1.632 2.4,0 4.032,1.632 1.728,1.536 1.728,4.224 0,2.688 -1.728,4.32 -1.632,1.536 -4.032,1.536 z" />
      <path
         id="path4897"
         style="fill:#39675a;fill-opacity:1"
         d="m 217.862,132.49247 q 1.152,0 2.592,0.192 1.536,0.096 2.976,0.384 1.44,0.192 2.592,0.48 1.248,0.192 1.824,0.384 l -1.536,7.776 q -1.056,-0.384 -3.552,-0.864 -2.4,-0.576 -6.24,-0.576 -2.496,0 -4.992,0.576 -2.4,0.48 -3.168,0.672 v 41.952 h -8.928 v -47.808 q 3.168,-1.152 7.872,-2.112 4.704,-1.056 10.56,-1.056 z" />
      <path
         id="path4899"
         style="fill:#39675a;fill-opacity:1"
         d="m 254.603,156.01247 q 2.88,2.208 6.048,5.472 3.264,3.264 6.336,7.104 3.168,3.744 5.952,7.68 2.784,3.84 4.704,7.2 h -10.464 q -2.016,-3.36 -4.704,-6.816 -2.592,-3.552 -5.472,-6.72 -2.88,-3.264 -5.856,-5.952 -2.976,-2.688 -5.664,-4.512 v 24 h -8.928 v -72.96 l 8.928,-1.536 v 45.504 q 2.304,-2.304 5.088,-5.088 2.784,-2.784 5.472,-5.664 2.688,-2.88 5.088,-5.472 2.4,-2.688 4.128,-4.704 h 10.464 q -2.208,2.4 -4.8,5.28 -2.592,2.88 -5.376,5.856 -2.784,2.88 -5.664,5.856 -2.784,2.88 -5.28,5.472 z" />
      <path
         id="path4901"
         style="fill:#39675a;fill-opacity:1"
         d="m 327.869,158.50847 q 0,5.952 -1.728,10.752 -1.728,4.8 -4.896,8.256 -3.072,3.456 -7.392,5.376 -4.32,1.824 -9.408,1.824 -5.088,0 -9.408,-1.824 -4.32,-1.92 -7.488,-5.376 -3.072,-3.456 -4.8,-8.256 -1.728,-4.8 -1.728,-10.752 0,-5.856 1.728,-10.656 1.728,-4.896 4.8,-8.352 3.168,-3.456 7.488,-5.28 4.32,-1.92 9.408,-1.92 5.088,0 9.408,1.92 4.32,1.824 7.392,5.28 3.168,3.456 4.896,8.352 1.728,4.8 1.728,10.656 z m -9.312,0 q 0,-8.448 -3.84,-13.344 -3.744,-4.992 -10.272,-4.992 -6.528,0 -10.368,4.992 -3.744,4.896 -3.744,13.344 0,8.448 3.744,13.44 3.84,4.896 10.368,4.896 6.528,0 10.272,-4.896 3.84,-4.992 3.84,-13.44 z" />
      <path
         id="path4903"
         style="font-style:normal;font-variant:normal;font-weight:normal;font-stretch:normal;font-family:Ubuntu;-inkscape-font-specification:Ubuntu;fill:#84a580;fill-opacity:1"
         d="m 350.99,178.28447 q 0,2.592 -1.728,4.512 -1.728,1.92 -4.704,1.92 -2.976,0 -4.704,-1.92 -1.728,-1.92 -1.728,-4.512 0,-2.592 1.728,-4.512 1.728,-1.92 4.704,-1.92 2.976,0 4.704,1.92 1.728,1.92 1.728,4.512 z" />
      <path
         id="path4905"
         style="font-style:normal;font-variant:normal;font-weight:normal;font-stretch:normal;font-family:Ubuntu;-inkscape-font-specification:Ubuntu;fill:#84a580;fill-opacity:1"
         d="m 398.711,158.60447 q 0,-8.736 -4.32,-13.44 -4.32,-4.704 -11.52,-4.704 -4.032,0 -6.336,0.288 -2.208,0.288 -3.552,0.672 v 31.488 q 1.632,1.344 4.704,2.592 3.072,1.248 6.72,1.248 3.84,0 6.528,-1.344 2.784,-1.44 4.512,-3.84 1.728,-2.496 2.496,-5.76 0.768,-3.36 0.768,-7.2 z m 9.312,0 q 0,5.664 -1.536,10.464 -1.44,4.8 -4.32,8.256 -2.88,3.456 -7.104,5.376 -4.128,1.92 -9.504,1.92 -4.32,0 -7.68,-1.152 -3.264,-1.152 -4.896,-2.208 v 19.968 h -8.928 v -66.144 q 3.168,-0.768 7.872,-1.632 4.8,-0.96 11.04,-0.96 5.76,0 10.368,1.824 4.608,1.824 7.872,5.184 3.264,3.36 4.992,8.256 1.824,4.8 1.824,10.848 z" />
      <path
         id="path4907"
         style="font-style:normal;font-variant:normal;font-weight:normal;font-stretch:normal;font-family:Ubuntu;-inkscape-font-specification:Ubuntu;fill:#84a580;fill-opacity:1"
         d="m 439.112,132.49247 q 1.152,0 2.592,0.192 1.536,0.096 2.976,0.384 1.44,0.192 2.592,0.48 1.248,0.192 1.824,0.384 l -1.536,7.776 q -1.056,-0.384 -3.552,-0.864 -2.4,-0.576 -6.24,-0.576 -2.496,0 -4.992,0.576 -2.4,0.48 -3.168,0.672 v 41.952 h -8.928 v -47.808 q 3.168,-1.152 7.872,-2.112 4.704,-1.056 10.56,-1.056 z" />
      <path
         id="path4909"
         style="font-style:normal;font-variant:normal;font-weight:normal;font-stretch:normal;font-family:Ubuntu;-inkscape-font-specification:Ubuntu;fill:#84a580;fill-opacity:1"
         d="m 501.869,158.50847 q 0,5.952 -1.728,10.752 -1.728,4.8 -4.896,8.256 -3.072,3.456 -7.392,5.376 -4.32,1.824 -9.408,1.824 -5.088,0 -9.408,-1.824 -4.32,-1.92 -7.488,-5.376 -3.072,-3.456 -4.8,-8.256 -1.728,-4.8 -1.728,-10.752 0,-5.856 1.728,-10.656 1.728,-4.896 4.8,-8.352 3.168,-3.456 7.488,-5.28 4.32,-1.92 9.408,-1.92 5.088,0 9.408,1.92 4.32,1.824 7.392,5.28 3.168,3.456 4.896,8.352 1.728,4.8 1.728,10.656 z m -9.312,0 q 0,-8.448 -3.84,-13.344 -3.744,-4.992 -10.272,-4.992 -6.528,0 -10.368,4.992 -3.744,4.896 -3.744,13.344 0,8.448 3.744,13.44 3.84,4.896 10.368,4.896 6.528,0 10.272,-4.896 3.84,-4.992 3.84,-13.44 z" />
    </g>
    <g
       id="flowRoot4657"
       style="font-style:normal;font-variant:normal;font-weight:normal;font-stretch:normal;font-size:40px;line-height:1.25;font-family:Ubuntu;-inkscape-font-specification:Ubuntu;letter-spacing:0px;word-spacing:0px;fill:#000000;fill-opacity:1;stroke:none"
       transform="scale(0.26458333)" />
    <g
       id="text4667"
       style="font-style:normal;font-variant:normal;font-weight:normal;font-stretch:normal;font-size:10.50424385px;line-height:1.25;font-family:Ubuntu;-inkscape-font-specification:Ubuntu;letter-spacing:0px;word-spacing:0px;fill:#000000;fill-opacity:1;stroke:none;stroke-width:0.26260608"
       transform="scale(1.211967,0.82510498)" />
  </g>
</svg>
