<?xml version="1.0" encoding="UTF-8" standalone="no"?>
<svg
   xmlns:dc="http://purl.org/dc/elements/1.1/"
   xmlns:cc="http://creativecommons.org/ns#"
   xmlns:rdf="http://www.w3.org/1999/02/22-rdf-syntax-ns#"
   xmlns:svg="http://www.w3.org/2000/svg"
   xmlns="http://www.w3.org/2000/svg"
   id="svg118"
   version="1.1"
   viewBox="0 0 125.4625 31.217543"
   height="31.217543mm"
   width="125.4625mm">
  <defs
     id="defs112" />
  <metadata
     id="metadata115">
    <rdf:RDF>
      <cc:Work
         rdf:about="">
        <dc:format>image/svg+xml</dc:format>
        <dc:type
           rdf:resource="http://purl.org/dc/dcmitype/StillImage" />
        <dc:title></dc:title>
      </cc:Work>
    </rdf:RDF>
  </metadata>
  <g
     transform="translate(1.9282969e-7,-8.4215849)"
     id="layer1">
    <g
       id="flowRoot120"
       style="font-style:normal;font-variant:normal;font-weight:normal;font-stretch:normal;font-size:40px;line-height:1.25;font-family:Ubuntu;-inkscape-font-specification:Ubuntu;letter-spacing:0px;word-spacing:0px;fill:#000000;fill-opacity:1;stroke:none"
       transform="matrix(0.26458333,0,0,0.26458333,-7.3236666,-20.410714)"
       aria-label="fedirko.pro">
      <path
         id="path4935"
         style="fill:#ffffff"
         d="m 47.168,108.97247 q 3.936,0 6.72,0.576 2.88,0.576 4.032,1.056 l -1.632,7.68 q -1.152,-0.576 -3.264,-1.056 -2.112,-0.576 -5.184,-0.576 -6.24,0 -8.736,3.456 -2.496,3.36 -2.496,9.12 v 4.32 h 19.2 v 7.488 h -19.2 v 42.432 H 27.68 v -54.432 q 0,-9.6 4.704,-14.784 4.704,-5.28 14.784,-5.28 z" />
      <path
         id="path4937"
         style="fill:#ffffff"
         d="m 62.021,158.60447 q 0,-6.624 1.92,-11.52 1.92,-4.992 5.088,-8.256 3.168,-3.264 7.296,-4.896 4.128,-1.632 8.448,-1.632 10.08,0 15.456,6.336 5.376,6.24 5.376,19.104 0,0.576 0,1.536 0,0.864 -0.096,1.632 H 71.333 q 0.576,7.776 4.512,11.808 3.936,4.032 12.288,4.032 4.704,0 7.872,-0.768 3.264,-0.864 4.896,-1.632 l 1.248,7.488 q -1.632,0.864 -5.76,1.824 -4.032,0.96 -9.216,0.96 -6.528,0 -11.328,-1.92 -4.704,-2.016 -7.776,-5.472 -3.072,-3.456 -4.608,-8.16 -1.44,-4.8 -1.44,-10.464 z m 34.272,-4.896 q 0.096,-6.048 -3.072,-9.888 -3.072,-3.936 -8.544,-3.936 -3.072,0 -5.472,1.248 -2.304,1.152 -3.936,3.072 -1.632,1.92 -2.592,4.416 -0.864,2.496 -1.152,5.088 z" />
      <path
         id="path4939"
         style="fill:#ffffff"
         d="m 150.686,144.10847 q -1.632,-1.344 -4.704,-2.592 -3.072,-1.248 -6.72,-1.248 -3.84,0 -6.624,1.44 -2.688,1.344 -4.416,3.84 -1.728,2.4 -2.496,5.76 -0.768,3.36 -0.768,7.2 0,8.736 4.32,13.536 4.32,4.704 11.52,4.704 3.648,0 6.048,-0.288 2.496,-0.384 3.84,-0.768 z m 0,-33.6 8.928,-1.536 v 73.056 q -3.072,0.864 -7.872,1.728 -4.8,0.864 -11.04,0.864 -5.76,0 -10.368,-1.824 -4.608,-1.824 -7.872,-5.184 -3.264,-3.36 -5.088,-8.16 -1.728,-4.896 -1.728,-10.944 0,-5.76 1.44,-10.56 1.536,-4.8 4.416,-8.256 2.88,-3.456 7.008,-5.376 4.224,-1.92 9.6,-1.92 4.32,0 7.584,1.152 3.36,1.152 4.992,2.208 z" />
      <path
         id="path4941"
         style="fill:#ffffff"
         d="m 183.983,183.46847 h -8.928 v -49.92 h 8.928 z m -4.512,-58.944 q -2.4,0 -4.128,-1.536 -1.632,-1.632 -1.632,-4.32 0,-2.688 1.632,-4.224 1.728,-1.632 4.128,-1.632 2.4,0 4.032,1.632 1.728,1.536 1.728,4.224 0,2.688 -1.728,4.32 -1.632,1.536 -4.032,1.536 z" />
      <path
         id="path4943"
         style="fill:#ffffff"
         d="m 217.862,132.49247 q 1.152,0 2.592,0.192 1.536,0.096 2.976,0.384 1.44,0.192 2.592,0.48 1.248,0.192 1.824,0.384 l -1.536,7.776 q -1.056,-0.384 -3.552,-0.864 -2.4,-0.576 -6.24,-0.576 -2.496,0 -4.992,0.576 -2.4,0.48 -3.168,0.672 v 41.952 h -8.928 v -47.808 q 3.168,-1.152 7.872,-2.112 4.704,-1.056 10.56,-1.056 z" />
      <path
         id="path4945"
         style="fill:#ffffff"
         d="m 254.603,156.01247 q 2.88,2.208 6.048,5.472 3.264,3.264 6.336,7.104 3.168,3.744 5.952,7.68 2.784,3.84 4.704,7.2 h -10.464 q -2.016,-3.36 -4.704,-6.816 -2.592,-3.552 -5.472,-6.72 -2.88,-3.264 -5.856,-5.952 -2.976,-2.688 -5.664,-4.512 v 24 h -8.928 v -72.96 l 8.928,-1.536 v 45.504 q 2.304,-2.304 5.088,-5.088 2.784,-2.784 5.472,-5.664 2.688,-2.88 5.088,-5.472 2.4,-2.688 4.128,-4.704 h 10.464 q -2.208,2.4 -4.8,5.28 -2.592,2.88 -5.376,5.856 -2.784,2.88 -5.664,5.856 -2.784,2.88 -5.28,5.472 z" />
      <path
         id="path4947"
         style="fill:#ffffff"
         d="m 327.869,158.50847 q 0,5.952 -1.728,10.752 -1.728,4.8 -4.896,8.256 -3.072,3.456 -7.392,5.376 -4.32,1.824 -9.408,1.824 -5.088,0 -9.408,-1.824 -4.32,-1.92 -7.488,-5.376 -3.072,-3.456 -4.8,-8.256 -1.728,-4.8 -1.728,-10.752 0,-5.856 1.728,-10.656 1.728,-4.896 4.8,-8.352 3.168,-3.456 7.488,-5.28 4.32,-1.92 9.408,-1.92 5.088,0 9.408,1.92 4.32,1.824 7.392,5.28 3.168,3.456 4.896,8.352 1.728,4.8 1.728,10.656 z m -9.312,0 q 0,-8.448 -3.84,-13.344 -3.744,-4.992 -10.272,-4.992 -6.528,0 -10.368,4.992 -3.744,4.896 -3.744,13.344 0,8.448 3.744,13.44 3.84,4.896 10.368,4.896 6.528,0 10.272,-4.896 3.84,-4.992 3.84,-13.44 z" />
      <path
         id="path4949"
         style="font-style:normal;font-variant:normal;font-weight:normal;font-stretch:normal;font-family:Ubuntu;-inkscape-font-specification:Ubuntu;fill:#84a580;fill-opacity:1"
         d="m 350.99,178.28447 q 0,2.592 -1.728,4.512 -1.728,1.92 -4.704,1.92 -2.976,0 -4.704,-1.92 -1.728,-1.92 -1.728,-4.512 0,-2.592 1.728,-4.512 1.728,-1.92 4.704,-1.92 2.976,0 4.704,1.92 1.728,1.92 1.728,4.512 z" />
      <path
         id="path4951"
         style="font-style:normal;font-variant:normal;font-weight:normal;font-stretch:normal;font-family:Ubuntu;-inkscape-font-specification:Ubuntu;fill:#84a580;fill-opacity:1"
         d="m 398.711,158.60447 q 0,-8.736 -4.32,-13.44 -4.32,-4.704 -11.52,-4.704 -4.032,0 -6.336,0.288 -2.208,0.288 -3.552,0.672 v 31.488 q 1.632,1.344 4.704,2.592 3.072,1.248 6.72,1.248 3.84,0 6.528,-1.344 2.784,-1.44 4.512,-3.84 1.728,-2.496 2.496,-5.76 0.768,-3.36 0.768,-7.2 z m 9.312,0 q 0,5.664 -1.536,10.464 -1.44,4.8 -4.32,8.256 -2.88,3.456 -7.104,5.376 -4.128,1.92 -9.504,1.92 -4.32,0 -7.68,-1.152 -3.264,-1.152 -4.896,-2.208 v 19.968 h -8.928 v -66.144 q 3.168,-0.768 7.872,-1.632 4.8,-0.96 11.04,-0.96 5.76,0 10.368,1.824 4.608,1.824 7.872,5.184 3.264,3.36 4.992,8.256 1.824,4.8 1.824,10.848 z" />
      <path
         id="path4953"
         style="font-style:normal;font-variant:normal;font-weight:normal;font-stretch:normal;font-family:Ubuntu;-inkscape-font-specification:Ubuntu;fill:#84a580;fill-opacity:1"
         d="m 439.112,132.49247 q 1.152,0 2.592,0.192 1.536,0.096 2.976,0.384 1.44,0.192 2.592,0.48 1.248,0.192 1.824,0.384 l -1.536,7.776 q -1.056,-0.384 -3.552,-0.864 -2.4,-0.576 -6.24,-0.576 -2.496,0 -4.992,0.576 -2.4,0.48 -3.168,0.672 v 41.952 h -8.928 v -47.808 q 3.168,-1.152 7.872,-2.112 4.704,-1.056 10.56,-1.056 z" />
      <path
         id="path4955"
         style="font-style:normal;font-variant:normal;font-weight:normal;font-stretch:normal;font-family:Ubuntu;-inkscape-font-specification:Ubuntu;fill:#84a580;fill-opacity:1"
         d="m 501.869,158.50847 q 0,5.952 -1.728,10.752 -1.728,4.8 -4.896,8.256 -3.072,3.456 -7.392,5.376 -4.32,1.824 -9.408,1.824 -5.088,0 -9.408,-1.824 -4.32,-1.92 -7.488,-5.376 -3.072,-3.456 -4.8,-8.256 -1.728,-4.8 -1.728,-10.752 0,-5.856 1.728,-10.656 1.728,-4.896 4.8,-8.352 3.168,-3.456 7.488,-5.28 4.32,-1.92 9.408,-1.92 5.088,0 9.408,1.92 4.32,1.824 7.392,5.28 3.168,3.456 4.896,8.352 1.728,4.8 1.728,10.656 z m -9.312,0 q 0,-8.448 -3.84,-13.344 -3.744,-4.992 -10.272,-4.992 -6.528,0 -10.368,4.992 -3.744,4.896 -3.744,13.344 0,8.448 3.744,13.44 3.84,4.896 10.368,4.896 6.528,0 10.272,-4.896 3.84,-4.992 3.84,-13.44 z" />
    </g>
    <g
       id="flowRoot4657"
       style="font-style:normal;font-variant:normal;font-weight:normal;font-stretch:normal;font-size:40px;line-height:1.25;font-family:Ubuntu;-inkscape-font-specification:Ubuntu;letter-spacing:0px;word-spacing:0px;fill:#000000;fill-opacity:1;stroke:none"
       transform="scale(0.26458333)" />
    <g
       id="text4667"
       style="font-style:normal;font-variant:normal;font-weight:normal;font-stretch:normal;font-size:10.50424385px;line-height:1.25;font-family:Ubuntu;-inkscape-font-specification:Ubuntu;letter-spacing:0px;word-spacing:0px;fill:#000000;fill-opacity:1;stroke:none;stroke-width:0.26260608"
       transform="scale(1.211967,0.82510498)" />
    <g
       id="flowRoot4669"
       style="font-style:normal;font-variant:normal;font-weight:normal;font-stretch:normal;font-size:40px;line-height:1.25;font-family:Ubuntu;-inkscape-font-specification:Ubuntu;letter-spacing:2.55999994px;word-spacing:0px;fill:#000000;fill-opacity:1;stroke:none"
       transform="matrix(0.26458333,0,0,0.26458333,-12.618682,-11.055804)"
       aria-label="web solutions">
      <path
         id="path4960"
         style="letter-spacing:4.25px;fill:#ffffff"
         d="m 67.172656,191.08289 q -1.12,-2.88 -2.4,-6.56 -1.24,-3.72 -2.28,-7.72 -1.04,4 -2.28,7.72 -1.24,3.68 -2.36,6.56 h -3.24 q -1.84,-4.12 -3.6,-9.4 -1.76,-5.28 -3.32,-11.4 h 4 q 0.4,1.88 0.96,4.08 0.56,2.2 1.16,4.4 0.64,2.2 1.32,4.24 0.68,2.04 1.28,3.56 0.68,-1.88 1.32,-3.96 0.68,-2.12 1.28,-4.24 0.6,-2.16 1.12,-4.2 0.56,-2.08 0.96,-3.88 h 3.08 q 0.36,1.8 0.88,3.88 0.52,2.04 1.12,4.2 0.6,2.12 1.24,4.24 0.68,2.08 1.36,3.96 0.6,-1.52 1.24,-3.56 0.68,-2.04 1.32,-4.24 0.64,-2.2 1.2,-4.4 0.56,-2.2 0.96,-4.08 h 3.84 q -1.56,6.12 -3.32,11.4 -1.76,5.28 -3.6,9.4 z" />
      <path
         id="path4962"
         style="letter-spacing:4.25px;fill:#ffffff"
         d="m 84.356406,180.72289 q 0,-2.76 0.8,-4.8 0.8,-2.08 2.12,-3.44 1.32,-1.36 3.04,-2.04 1.72,-0.68 3.52,-0.68 4.2,0 6.440004,2.64 2.24,2.6 2.24,7.96 0,0.24 0,0.64 0,0.36 -0.04,0.68 H 88.236406 q 0.24,3.24 1.88,4.92 1.64,1.68 5.12,1.68 1.96,0 3.28,-0.32 1.36,-0.36 2.040004,-0.68 l 0.52,3.12 q -0.68,0.36 -2.400004,0.76 -1.68,0.4 -3.84,0.4 -2.72,0 -4.72,-0.8 -1.96,-0.84 -3.24,-2.28 -1.28,-1.44 -1.92,-3.4 -0.6,-2 -0.6,-4.36 z m 14.28,-2.04 q 0.04,-2.52 -1.28,-4.12 -1.28,-1.64 -3.56,-1.64 -1.28,0 -2.28,0.52 -0.96,0.48 -1.64,1.28 -0.68,0.8 -1.08,1.84 -0.36,1.04 -0.48,2.12 z" />
      <path
         id="path4964"
         style="letter-spacing:4.25px;fill:#ffffff"
         d="m 115.83016,171.20289 q 0.68,-0.44 2.04,-0.92 1.4,-0.48 3.2,-0.48 2.24,0 3.96,0.8 1.76,0.8 2.96,2.24 1.2,1.44 1.8,3.44 0.64,2 0.64,4.4 0,2.52 -0.76,4.56 -0.72,2 -2.08,3.4 -1.36,1.4 -3.28,2.16 -1.92,0.76 -4.32,0.76 -2.6,0 -4.6,-0.36 -2,-0.36 -3.28,-0.72 v -29.8 l 3.72,-0.64 z m 0,16.64 q 0.56,0.16 1.56,0.32 1.04,0.12 2.56,0.12 3,0 4.8,-1.96 1.8,-2 1.8,-5.64 0,-1.6 -0.32,-3 -0.32,-1.4 -1.04,-2.4 -0.72,-1.04 -1.88,-1.6 -1.12,-0.6 -2.72,-0.6 -1.52,0 -2.8,0.52 -1.28,0.52 -1.96,1.08 z" />
      <path
         id="path4966"
         style="letter-spacing:4.25px;fill:#ffffff"
         d="m 158.26266,188.40289 q 2.28,0 3.36,-0.6 1.12,-0.6 1.12,-1.92 0,-1.36 -1.08,-2.16 -1.08,-0.8 -3.56,-1.8 -1.2,-0.48 -2.32,-0.96 -1.08,-0.52 -1.88,-1.2 -0.8,-0.68 -1.28,-1.64 -0.48,-0.96 -0.48,-2.36 0,-2.76 2.04,-4.36 2.04,-1.64 5.56,-1.64 0.88,0 1.76,0.12 0.88,0.08 1.64,0.24 0.76,0.12 1.32,0.28 0.6,0.16 0.92,0.28 l -0.68,3.2 q -0.6,-0.32 -1.88,-0.64 -1.28,-0.36 -3.08,-0.36 -1.56,0 -2.72,0.64 -1.16,0.6 -1.16,1.92 0,0.68 0.24,1.2 0.28,0.52 0.8,0.96 0.56,0.4 1.36,0.76 0.8,0.36 1.92,0.76 1.48,0.56 2.64,1.12 1.16,0.52 1.96,1.24 0.84,0.72 1.28,1.76 0.44,1 0.44,2.48 0,2.88 -2.16,4.36 -2.12,1.48 -6.08,1.48 -2.76,0 -4.32,-0.48 -1.56,-0.44 -2.12,-0.68 l 0.68,-3.2 q 0.64,0.24 2.04,0.72 1.4,0.48 3.72,0.48 z" />
      <path
         id="path4968"
         style="letter-spacing:4.25px;fill:#ffffff"
         d="m 193.84516,180.68289 q 0,2.48 -0.72,4.48 -0.72,2 -2.04,3.44 -1.28,1.44 -3.08,2.24 -1.8,0.76 -3.92,0.76 -2.12,0 -3.92,-0.76 -1.8,-0.8 -3.12,-2.24 -1.28,-1.44 -2,-3.44 -0.72,-2 -0.72,-4.48 0,-2.44 0.72,-4.44 0.72,-2.04 2,-3.48 1.32,-1.44 3.12,-2.2 1.8,-0.8 3.92,-0.8 2.12,0 3.92,0.8 1.8,0.76 3.08,2.2 1.32,1.44 2.04,3.48 0.72,2 0.72,4.44 z m -3.88,0 q 0,-3.52 -1.6,-5.56 -1.56,-2.08 -4.28,-2.08 -2.72,0 -4.32,2.08 -1.56,2.04 -1.56,5.56 0,3.52 1.56,5.6 1.6,2.04 4.32,2.04 2.72,0 4.28,-2.04 1.6,-2.08 1.6,-5.6 z" />
      <path
         id="path4970"
         style="letter-spacing:4.25px;fill:#ffffff"
         d="m 209.56891,191.48289 q -3.44,-0.08 -4.88,-1.48 -1.44,-1.4 -1.44,-4.36 v -24.96 l 3.72,-0.64 v 25 q 0,0.92 0.16,1.52 0.16,0.6 0.52,0.96 0.36,0.36 0.96,0.56 0.6,0.16 1.48,0.28 z" />
      <path
         id="path4972"
         style="letter-spacing:4.25px;fill:#ffffff"
         d="m 235.07641,190.48289 q -1.28,0.32 -3.4,0.68 -2.08,0.36 -4.84,0.36 -2.4,0 -4.04,-0.68 -1.64,-0.72 -2.64,-2 -1,-1.28 -1.44,-3 -0.44,-1.76 -0.44,-3.88 v -11.68 h 3.72 v 10.88 q 0,3.8 1.2,5.44 1.2,1.64 4.04,1.64 0.6,0 1.24,-0.04 0.64,-0.04 1.2,-0.08 0.56,-0.08 1,-0.12 0.48,-0.08 0.68,-0.16 v -17.56 h 3.72 z" />
      <path
         id="path4974"
         style="letter-spacing:4.25px;fill:#ffffff"
         d="m 249.21516,170.28289 h 7.88 v 3.12 h -7.88 v 9.6 q 0,1.56 0.24,2.6 0.24,1 0.72,1.6 0.48,0.56 1.2,0.8 0.72,0.24 1.68,0.24 1.68,0 2.68,-0.36 1.04,-0.4 1.44,-0.56 l 0.72,3.08 q -0.56,0.28 -1.96,0.68 -1.4,0.44 -3.2,0.44 -2.12,0 -3.52,-0.52 -1.36,-0.56 -2.2,-1.64 -0.84,-1.08 -1.2,-2.64 -0.32,-1.6 -0.32,-3.68 v -18.56 l 3.72,-0.64 z" />
      <path
         id="path4976"
         style="letter-spacing:4.25px;fill:#ffffff"
         d="m 269.79891,191.08289 h -3.72 v -20.8 h 3.72 z m -1.88,-24.56 q -1,0 -1.72,-0.64 -0.68,-0.68 -0.68,-1.8 0,-1.12 0.68,-1.76 0.72,-0.68 1.72,-0.68 1,0 1.68,0.68 0.72,0.64 0.72,1.76 0,1.12 -0.72,1.8 -0.68,0.64 -1.68,0.64 z" />
      <path
         id="path4978"
         style="letter-spacing:4.25px;fill:#ffffff"
         d="m 298.84516,180.68289 q 0,2.48 -0.72,4.48 -0.72,2 -2.04,3.44 -1.28,1.44 -3.08,2.24 -1.8,0.76 -3.92,0.76 -2.12,0 -3.92,-0.76 -1.8,-0.8 -3.12,-2.24 -1.28,-1.44 -2,-3.44 -0.72,-2 -0.72,-4.48 0,-2.44 0.72,-4.44 0.72,-2.04 2,-3.48 1.32,-1.44 3.12,-2.2 1.8,-0.8 3.92,-0.8 2.12,0 3.92,0.8 1.8,0.76 3.08,2.2 1.32,1.44 2.04,3.48 0.72,2 0.72,4.44 z m -3.88,0 q 0,-3.52 -1.6,-5.56 -1.56,-2.08 -4.28,-2.08 -2.72,0 -4.32,2.08 -1.56,2.04 -1.56,5.56 0,3.52 1.56,5.6 1.6,2.04 4.32,2.04 2.72,0 4.28,-2.04 1.6,-2.08 1.6,-5.6 z" />
      <path
         id="path4980"
         style="letter-spacing:4.25px;fill:#ffffff"
         d="m 308.32891,170.88289 q 1.28,-0.32 3.4,-0.68 2.12,-0.36 4.88,-0.36 2.48,0 4.12,0.72 1.64,0.68 2.6,1.96 1,1.24 1.4,3 0.4,1.76 0.4,3.88 v 11.68 h -3.72 v -10.88 q 0,-1.92 -0.28,-3.28 -0.24,-1.36 -0.84,-2.2 -0.6,-0.84 -1.6,-1.2 -1,-0.4 -2.48,-0.4 -0.6,0 -1.24,0.04 -0.64,0.04 -1.24,0.12 -0.56,0.04 -1.04,0.12 -0.44,0.08 -0.64,0.12 v 17.56 h -3.72 z" />
      <path
         id="path4982"
         style="letter-spacing:4.25px;fill:#ffffff"
         d="m 340.38766,188.40289 q 2.28,0 3.36,-0.6 1.12,-0.6 1.12,-1.92 0,-1.36 -1.08,-2.16 -1.08,-0.8 -3.56,-1.8 -1.2,-0.48 -2.32,-0.96 -1.08,-0.52 -1.88,-1.2 -0.8,-0.68 -1.28,-1.64 -0.48,-0.96 -0.48,-2.36 0,-2.76 2.04,-4.36 2.04,-1.64 5.56,-1.64 0.88,0 1.76,0.12 0.88,0.08 1.64,0.24 0.76,0.12 1.32,0.28 0.6,0.16 0.92,0.28 l -0.68,3.2 q -0.6,-0.32 -1.88,-0.64 -1.28,-0.36 -3.08,-0.36 -1.56,0 -2.72,0.64 -1.16,0.6 -1.16,1.92 0,0.68 0.24,1.2 0.28,0.52 0.8,0.96 0.56,0.4 1.36,0.76 0.8,0.36 1.92,0.76 1.48,0.56 2.64,1.12 1.16,0.52 1.96,1.24 0.84,0.72 1.28,1.76 0.44,1 0.44,2.48 0,2.88 -2.16,4.36 -2.12,1.48 -6.08,1.48 -2.76,0 -4.32,-0.48 -1.56,-0.44 -2.12,-0.68 l 0.68,-3.2 q 0.64,0.24 2.04,0.72 1.4,0.48 3.72,0.48 z" />
    </g>
  </g>
</svg>
