<?xml version="1.0" encoding="UTF-8"?>
<svg width="125.46mm" height="24.409mm" version="1.1" viewBox="0 0 125.4625 24.409399" xmlns="http://www.w3.org/2000/svg" xmlns:cc="http://creativecommons.org/ns#" xmlns:dc="http://purl.org/dc/elements/1.1/" xmlns:rdf="http://www.w3.org/1999/02/22-rdf-syntax-ns#">
<metadata>
<rdf:RDF>
<cc:Work rdf:about="">
<dc:format>image/svg+xml</dc:format>
<dc:type rdf:resource="http://purl.org/dc/dcmitype/StillImage"/>
<dc:title/>
</cc:Work>
</rdf:RDF>
</metadata>
<g transform="translate(2.56e-8 -8.4216)">
<g transform="matrix(.26458 0 0 .26458 -7.3237 -20.411)" aria-label="fedirko.pro">
<path d="m47.168 108.97q3.936 0 6.72 0.576 2.88 0.576 4.032 1.056l-1.632 7.68q-1.152-0.576-3.264-1.056-2.112-0.576-5.184-0.576-6.24 0-8.736 3.456-2.496 3.36-2.496 9.12v4.32h19.2v7.488h-19.2v42.432h-8.928v-54.432q0-9.6 4.704-14.784 4.704-5.28 14.784-5.28z" fill="#39675a"/>
<path d="m62.021 158.6q0-6.624 1.92-11.52 1.92-4.992 5.088-8.256t7.296-4.896 8.448-1.632q10.08 0 15.456 6.336 5.376 6.24 5.376 19.104 0 0.576 0 1.536 0 0.864-0.096 1.632h-34.176q0.576 7.776 4.512 11.808t12.288 4.032q4.704 0 7.872-0.768 3.264-0.864 4.896-1.632l1.248 7.488q-1.632 0.864-5.76 1.824-4.032 0.96-9.216 0.96-6.528 0-11.328-1.92-4.704-2.016-7.776-5.472t-4.608-8.16q-1.44-4.8-1.44-10.464zm34.272-4.896q0.096-6.048-3.072-9.888-3.072-3.936-8.544-3.936-3.072 0-5.472 1.248-2.304 1.152-3.936 3.072t-2.592 4.416q-0.864 2.496-1.152 5.088z" fill="#39675a"/>
<path d="m150.69 144.11q-1.632-1.344-4.704-2.592t-6.72-1.248q-3.84 0-6.624 1.44-2.688 1.344-4.416 3.84-1.728 2.4-2.496 5.76t-0.768 7.2q0 8.736 4.32 13.536 4.32 4.704 11.52 4.704 3.648 0 6.048-0.288 2.496-0.384 3.84-0.768zm0-33.6 8.928-1.536v73.056q-3.072 0.864-7.872 1.728t-11.04 0.864q-5.76 0-10.368-1.824t-7.872-5.184-5.088-8.16q-1.728-4.896-1.728-10.944 0-5.76 1.44-10.56 1.536-4.8 4.416-8.256t7.008-5.376q4.224-1.92 9.6-1.92 4.32 0 7.584 1.152 3.36 1.152 4.992 2.208z" fill="#39675a"/>
<path d="m183.98 183.47h-8.928v-49.92h8.928zm-4.512-58.944q-2.4 0-4.128-1.536-1.632-1.632-1.632-4.32t1.632-4.224q1.728-1.632 4.128-1.632t4.032 1.632q1.728 1.536 1.728 4.224t-1.728 4.32q-1.632 1.536-4.032 1.536z" fill="#39675a"/>
<path d="m217.86 132.49q1.152 0 2.592 0.192 1.536 0.096 2.976 0.384 1.44 0.192 2.592 0.48 1.248 0.192 1.824 0.384l-1.536 7.776q-1.056-0.384-3.552-0.864-2.4-0.576-6.24-0.576-2.496 0-4.992 0.576-2.4 0.48-3.168 0.672v41.952h-8.928v-47.808q3.168-1.152 7.872-2.112 4.704-1.056 10.56-1.056z" fill="#39675a"/>
<path d="m254.6 156.01q2.88 2.208 6.048 5.472 3.264 3.264 6.336 7.104 3.168 3.744 5.952 7.68 2.784 3.84 4.704 7.2h-10.464q-2.016-3.36-4.704-6.816-2.592-3.552-5.472-6.72-2.88-3.264-5.856-5.952t-5.664-4.512v24h-8.928v-72.96l8.928-1.536v45.504q2.304-2.304 5.088-5.088t5.472-5.664 5.088-5.472q2.4-2.688 4.128-4.704h10.464q-2.208 2.4-4.8 5.28t-5.376 5.856q-2.784 2.88-5.664 5.856-2.784 2.88-5.28 5.472z" fill="#39675a"/>
<path d="m327.87 158.51q0 5.952-1.728 10.752t-4.896 8.256q-3.072 3.456-7.392 5.376-4.32 1.824-9.408 1.824t-9.408-1.824q-4.32-1.92-7.488-5.376-3.072-3.456-4.8-8.256t-1.728-10.752q0-5.856 1.728-10.656 1.728-4.896 4.8-8.352 3.168-3.456 7.488-5.28 4.32-1.92 9.408-1.92t9.408 1.92q4.32 1.824 7.392 5.28 3.168 3.456 4.896 8.352 1.728 4.8 1.728 10.656zm-9.312 0q0-8.448-3.84-13.344-3.744-4.992-10.272-4.992t-10.368 4.992q-3.744 4.896-3.744 13.344t3.744 13.44q3.84 4.896 10.368 4.896t10.272-4.896q3.84-4.992 3.84-13.44z" fill="#39675a"/>
<path d="m350.99 178.28q0 2.592-1.728 4.512t-4.704 1.92-4.704-1.92-1.728-4.512 1.728-4.512 4.704-1.92 4.704 1.92 1.728 4.512z" fill="#84a580"/>
<path d="m398.71 158.6q0-8.736-4.32-13.44t-11.52-4.704q-4.032 0-6.336 0.288-2.208 0.288-3.552 0.672v31.488q1.632 1.344 4.704 2.592t6.72 1.248q3.84 0 6.528-1.344 2.784-1.44 4.512-3.84 1.728-2.496 2.496-5.76 0.768-3.36 0.768-7.2zm9.312 0q0 5.664-1.536 10.464-1.44 4.8-4.32 8.256t-7.104 5.376q-4.128 1.92-9.504 1.92-4.32 0-7.68-1.152-3.264-1.152-4.896-2.208v19.968h-8.928v-66.144q3.168-0.768 7.872-1.632 4.8-0.96 11.04-0.96 5.76 0 10.368 1.824t7.872 5.184 4.992 8.256q1.824 4.8 1.824 10.848z" fill="#84a580"/>
<path d="m439.11 132.49q1.152 0 2.592 0.192 1.536 0.096 2.976 0.384 1.44 0.192 2.592 0.48 1.248 0.192 1.824 0.384l-1.536 7.776q-1.056-0.384-3.552-0.864-2.4-0.576-6.24-0.576-2.496 0-4.992 0.576-2.4 0.48-3.168 0.672v41.952h-8.928v-47.808q3.168-1.152 7.872-2.112 4.704-1.056 10.56-1.056z" fill="#84a580"/>
<path d="m501.87 158.51q0 5.952-1.728 10.752t-4.896 8.256q-3.072 3.456-7.392 5.376-4.32 1.824-9.408 1.824t-9.408-1.824q-4.32-1.92-7.488-5.376-3.072-3.456-4.8-8.256t-1.728-10.752q0-5.856 1.728-10.656 1.728-4.896 4.8-8.352 3.168-3.456 7.488-5.28 4.32-1.92 9.408-1.92t9.408 1.92q4.32 1.824 7.392 5.28 3.168 3.456 4.896 8.352 1.728 4.8 1.728 10.656zm-9.312 0q0-8.448-3.84-13.344-3.744-4.992-10.272-4.992t-10.368 4.992q-3.744 4.896-3.744 13.344t3.744 13.44q3.84 4.896 10.368 4.896t10.272-4.896q3.84-4.992 3.84-13.44z" fill="#84a580"/>
</g>
</g>
</svg>
