<?xml version="1.0" encoding="UTF-8"?>
<svg width="125.46mm" height="31.218mm" version="1.1" viewBox="0 0 125.4625 31.217543" xmlns="http://www.w3.org/2000/svg" xmlns:cc="http://creativecommons.org/ns#" xmlns:dc="http://purl.org/dc/elements/1.1/" xmlns:rdf="http://www.w3.org/1999/02/22-rdf-syntax-ns#">
<metadata>
<rdf:RDF>
<cc:Work rdf:about="">
<dc:format>image/svg+xml</dc:format>
<dc:type rdf:resource="http://purl.org/dc/dcmitype/StillImage"/>
<dc:title/>
</cc:Work>
</rdf:RDF>
</metadata>
<g transform="translate(1.9283e-7 -8.4216)">
<g transform="matrix(.26458 0 0 .26458 -7.3237 -20.411)" aria-label="fedirko.pro">
<path d="m47.168 108.97q3.936 0 6.72 0.576 2.88 0.576 4.032 1.056l-1.632 7.68q-1.152-0.576-3.264-1.056-2.112-0.576-5.184-0.576-6.24 0-8.736 3.456-2.496 3.36-2.496 9.12v4.32h19.2v7.488h-19.2v42.432h-8.928v-54.432q0-9.6 4.704-14.784 4.704-5.28 14.784-5.28z" fill="#fff"/>
<path d="m62.021 158.6q0-6.624 1.92-11.52 1.92-4.992 5.088-8.256t7.296-4.896 8.448-1.632q10.08 0 15.456 6.336 5.376 6.24 5.376 19.104 0 0.576 0 1.536 0 0.864-0.096 1.632h-34.176q0.576 7.776 4.512 11.808t12.288 4.032q4.704 0 7.872-0.768 3.264-0.864 4.896-1.632l1.248 7.488q-1.632 0.864-5.76 1.824-4.032 0.96-9.216 0.96-6.528 0-11.328-1.92-4.704-2.016-7.776-5.472t-4.608-8.16q-1.44-4.8-1.44-10.464zm34.272-4.896q0.096-6.048-3.072-9.888-3.072-3.936-8.544-3.936-3.072 0-5.472 1.248-2.304 1.152-3.936 3.072t-2.592 4.416q-0.864 2.496-1.152 5.088z" fill="#fff"/>
<path d="m150.69 144.11q-1.632-1.344-4.704-2.592t-6.72-1.248q-3.84 0-6.624 1.44-2.688 1.344-4.416 3.84-1.728 2.4-2.496 5.76t-0.768 7.2q0 8.736 4.32 13.536 4.32 4.704 11.52 4.704 3.648 0 6.048-0.288 2.496-0.384 3.84-0.768zm0-33.6 8.928-1.536v73.056q-3.072 0.864-7.872 1.728t-11.04 0.864q-5.76 0-10.368-1.824t-7.872-5.184-5.088-8.16q-1.728-4.896-1.728-10.944 0-5.76 1.44-10.56 1.536-4.8 4.416-8.256t7.008-5.376q4.224-1.92 9.6-1.92 4.32 0 7.584 1.152 3.36 1.152 4.992 2.208z" fill="#fff"/>
<path d="m183.98 183.47h-8.928v-49.92h8.928zm-4.512-58.944q-2.4 0-4.128-1.536-1.632-1.632-1.632-4.32t1.632-4.224q1.728-1.632 4.128-1.632t4.032 1.632q1.728 1.536 1.728 4.224t-1.728 4.32q-1.632 1.536-4.032 1.536z" fill="#fff"/>
<path d="m217.86 132.49q1.152 0 2.592 0.192 1.536 0.096 2.976 0.384 1.44 0.192 2.592 0.48 1.248 0.192 1.824 0.384l-1.536 7.776q-1.056-0.384-3.552-0.864-2.4-0.576-6.24-0.576-2.496 0-4.992 0.576-2.4 0.48-3.168 0.672v41.952h-8.928v-47.808q3.168-1.152 7.872-2.112 4.704-1.056 10.56-1.056z" fill="#fff"/>
<path d="m254.6 156.01q2.88 2.208 6.048 5.472 3.264 3.264 6.336 7.104 3.168 3.744 5.952 7.68 2.784 3.84 4.704 7.2h-10.464q-2.016-3.36-4.704-6.816-2.592-3.552-5.472-6.72-2.88-3.264-5.856-5.952t-5.664-4.512v24h-8.928v-72.96l8.928-1.536v45.504q2.304-2.304 5.088-5.088t5.472-5.664 5.088-5.472q2.4-2.688 4.128-4.704h10.464q-2.208 2.4-4.8 5.28t-5.376 5.856q-2.784 2.88-5.664 5.856-2.784 2.88-5.28 5.472z" fill="#fff"/>
<path d="m327.87 158.51q0 5.952-1.728 10.752t-4.896 8.256q-3.072 3.456-7.392 5.376-4.32 1.824-9.408 1.824t-9.408-1.824q-4.32-1.92-7.488-5.376-3.072-3.456-4.8-8.256t-1.728-10.752q0-5.856 1.728-10.656 1.728-4.896 4.8-8.352 3.168-3.456 7.488-5.28 4.32-1.92 9.408-1.92t9.408 1.92q4.32 1.824 7.392 5.28 3.168 3.456 4.896 8.352 1.728 4.8 1.728 10.656zm-9.312 0q0-8.448-3.84-13.344-3.744-4.992-10.272-4.992t-10.368 4.992q-3.744 4.896-3.744 13.344t3.744 13.44q3.84 4.896 10.368 4.896t10.272-4.896q3.84-4.992 3.84-13.44z" fill="#fff"/>
<path d="m350.99 178.28q0 2.592-1.728 4.512t-4.704 1.92-4.704-1.92-1.728-4.512 1.728-4.512 4.704-1.92 4.704 1.92 1.728 4.512z" fill="#84a580"/>
<path d="m398.71 158.6q0-8.736-4.32-13.44t-11.52-4.704q-4.032 0-6.336 0.288-2.208 0.288-3.552 0.672v31.488q1.632 1.344 4.704 2.592t6.72 1.248q3.84 0 6.528-1.344 2.784-1.44 4.512-3.84 1.728-2.496 2.496-5.76 0.768-3.36 0.768-7.2zm9.312 0q0 5.664-1.536 10.464-1.44 4.8-4.32 8.256t-7.104 5.376q-4.128 1.92-9.504 1.92-4.32 0-7.68-1.152-3.264-1.152-4.896-2.208v19.968h-8.928v-66.144q3.168-0.768 7.872-1.632 4.8-0.96 11.04-0.96 5.76 0 10.368 1.824t7.872 5.184 4.992 8.256q1.824 4.8 1.824 10.848z" fill="#84a580"/>
<path d="m439.11 132.49q1.152 0 2.592 0.192 1.536 0.096 2.976 0.384 1.44 0.192 2.592 0.48 1.248 0.192 1.824 0.384l-1.536 7.776q-1.056-0.384-3.552-0.864-2.4-0.576-6.24-0.576-2.496 0-4.992 0.576-2.4 0.48-3.168 0.672v41.952h-8.928v-47.808q3.168-1.152 7.872-2.112 4.704-1.056 10.56-1.056z" fill="#84a580"/>
<path d="m501.87 158.51q0 5.952-1.728 10.752t-4.896 8.256q-3.072 3.456-7.392 5.376-4.32 1.824-9.408 1.824t-9.408-1.824q-4.32-1.92-7.488-5.376-3.072-3.456-4.8-8.256t-1.728-10.752q0-5.856 1.728-10.656 1.728-4.896 4.8-8.352 3.168-3.456 7.488-5.28 4.32-1.92 9.408-1.92t9.408 1.92q4.32 1.824 7.392 5.28 3.168 3.456 4.896 8.352 1.728 4.8 1.728 10.656zm-9.312 0q0-8.448-3.84-13.344-3.744-4.992-10.272-4.992t-10.368 4.992q-3.744 4.896-3.744 13.344t3.744 13.44q3.84 4.896 10.368 4.896t10.272-4.896q3.84-4.992 3.84-13.44z" fill="#84a580"/>
</g>
<g transform="matrix(.26458 0 0 .26458 -12.619 -11.056)" fill="#fff" aria-label="web solutions">
<path d="m67.173 191.08q-1.12-2.88-2.4-6.56-1.24-3.72-2.28-7.72-1.04 4-2.28 7.72-1.24 3.68-2.36 6.56h-3.24q-1.84-4.12-3.6-9.4t-3.32-11.4h4q0.4 1.88 0.96 4.08t1.16 4.4q0.64 2.2 1.32 4.24t1.28 3.56q0.68-1.88 1.32-3.96 0.68-2.12 1.28-4.24 0.6-2.16 1.12-4.2 0.56-2.08 0.96-3.88h3.08q0.36 1.8 0.88 3.88 0.52 2.04 1.12 4.2 0.6 2.12 1.24 4.24 0.68 2.08 1.36 3.96 0.6-1.52 1.24-3.56 0.68-2.04 1.32-4.24t1.2-4.4 0.96-4.08h3.84q-1.56 6.12-3.32 11.4t-3.6 9.4z"/>
<path d="m84.356 180.72q0-2.76 0.8-4.8 0.8-2.08 2.12-3.44t3.04-2.04 3.52-0.68q4.2 0 6.44 2.64 2.24 2.6 2.24 7.96 0 0.24 0 0.64 0 0.36-0.04 0.68h-14.24q0.24 3.24 1.88 4.92t5.12 1.68q1.96 0 3.28-0.32 1.36-0.36 2.04-0.68l0.52 3.12q-0.68 0.36-2.4 0.76-1.68 0.4-3.84 0.4-2.72 0-4.72-0.8-1.96-0.84-3.24-2.28t-1.92-3.4q-0.6-2-0.6-4.36zm14.28-2.04q0.04-2.52-1.28-4.12-1.28-1.64-3.56-1.64-1.28 0-2.28 0.52-0.96 0.48-1.64 1.28t-1.08 1.84q-0.36 1.04-0.48 2.12z"/>
<path d="m115.83 171.2q0.68-0.44 2.04-0.92 1.4-0.48 3.2-0.48 2.24 0 3.96 0.8 1.76 0.8 2.96 2.24t1.8 3.44q0.64 2 0.64 4.4 0 2.52-0.76 4.56-0.72 2-2.08 3.4t-3.28 2.16-4.32 0.76q-2.6 0-4.6-0.36t-3.28-0.72v-29.8l3.72-0.64zm0 16.64q0.56 0.16 1.56 0.32 1.04 0.12 2.56 0.12 3 0 4.8-1.96 1.8-2 1.8-5.64 0-1.6-0.32-3t-1.04-2.4q-0.72-1.04-1.88-1.6-1.12-0.6-2.72-0.6-1.52 0-2.8 0.52t-1.96 1.08z"/>
<path d="m158.26 188.4q2.28 0 3.36-0.6 1.12-0.6 1.12-1.92 0-1.36-1.08-2.16t-3.56-1.8q-1.2-0.48-2.32-0.96-1.08-0.52-1.88-1.2t-1.28-1.64-0.48-2.36q0-2.76 2.04-4.36 2.04-1.64 5.56-1.64 0.88 0 1.76 0.12 0.88 0.08 1.64 0.24 0.76 0.12 1.32 0.28 0.6 0.16 0.92 0.28l-0.68 3.2q-0.6-0.32-1.88-0.64-1.28-0.36-3.08-0.36-1.56 0-2.72 0.64-1.16 0.6-1.16 1.92 0 0.68 0.24 1.2 0.28 0.52 0.8 0.96 0.56 0.4 1.36 0.76t1.92 0.76q1.48 0.56 2.64 1.12 1.16 0.52 1.96 1.24 0.84 0.72 1.28 1.76 0.44 1 0.44 2.48 0 2.88-2.16 4.36-2.12 1.48-6.08 1.48-2.76 0-4.32-0.48-1.56-0.44-2.12-0.68l0.68-3.2q0.64 0.24 2.04 0.72t3.72 0.48z"/>
<path d="m193.85 180.68q0 2.48-0.72 4.48t-2.04 3.44q-1.28 1.44-3.08 2.24-1.8 0.76-3.92 0.76t-3.92-0.76q-1.8-0.8-3.12-2.24-1.28-1.44-2-3.44t-0.72-4.48q0-2.44 0.72-4.44 0.72-2.04 2-3.48 1.32-1.44 3.12-2.2 1.8-0.8 3.92-0.8t3.92 0.8q1.8 0.76 3.08 2.2 1.32 1.44 2.04 3.48 0.72 2 0.72 4.44zm-3.88 0q0-3.52-1.6-5.56-1.56-2.08-4.28-2.08t-4.32 2.08q-1.56 2.04-1.56 5.56t1.56 5.6q1.6 2.04 4.32 2.04t4.28-2.04q1.6-2.08 1.6-5.6z"/>
<path d="m209.57 191.48q-3.44-0.08-4.88-1.48t-1.44-4.36v-24.96l3.72-0.64v25q0 0.92 0.16 1.52t0.52 0.96 0.96 0.56q0.6 0.16 1.48 0.28z"/>
<path d="m235.08 190.48q-1.28 0.32-3.4 0.68-2.08 0.36-4.84 0.36-2.4 0-4.04-0.68-1.64-0.72-2.64-2t-1.44-3q-0.44-1.76-0.44-3.88v-11.68h3.72v10.88q0 3.8 1.2 5.44t4.04 1.64q0.6 0 1.24-0.04t1.2-0.08q0.56-0.08 1-0.12 0.48-0.08 0.68-0.16v-17.56h3.72z"/>
<path d="m249.22 170.28h7.88v3.12h-7.88v9.6q0 1.56 0.24 2.6 0.24 1 0.72 1.6 0.48 0.56 1.2 0.8t1.68 0.24q1.68 0 2.68-0.36 1.04-0.4 1.44-0.56l0.72 3.08q-0.56 0.28-1.96 0.68-1.4 0.44-3.2 0.44-2.12 0-3.52-0.52-1.36-0.56-2.2-1.64t-1.2-2.64q-0.32-1.6-0.32-3.68v-18.56l3.72-0.64z"/>
<path d="m269.8 191.08h-3.72v-20.8h3.72zm-1.88-24.56q-1 0-1.72-0.64-0.68-0.68-0.68-1.8t0.68-1.76q0.72-0.68 1.72-0.68t1.68 0.68q0.72 0.64 0.72 1.76t-0.72 1.8q-0.68 0.64-1.68 0.64z"/>
<path d="m298.85 180.68q0 2.48-0.72 4.48t-2.04 3.44q-1.28 1.44-3.08 2.24-1.8 0.76-3.92 0.76t-3.92-0.76q-1.8-0.8-3.12-2.24-1.28-1.44-2-3.44t-0.72-4.48q0-2.44 0.72-4.44 0.72-2.04 2-3.48 1.32-1.44 3.12-2.2 1.8-0.8 3.92-0.8t3.92 0.8q1.8 0.76 3.08 2.2 1.32 1.44 2.04 3.48 0.72 2 0.72 4.44zm-3.88 0q0-3.52-1.6-5.56-1.56-2.08-4.28-2.08t-4.32 2.08q-1.56 2.04-1.56 5.56t1.56 5.6q1.6 2.04 4.32 2.04t4.28-2.04q1.6-2.08 1.6-5.6z"/>
<path d="m308.33 170.88q1.28-0.32 3.4-0.68t4.88-0.36q2.48 0 4.12 0.72 1.64 0.68 2.6 1.96 1 1.24 1.4 3t0.4 3.88v11.68h-3.72v-10.88q0-1.92-0.28-3.28-0.24-1.36-0.84-2.2t-1.6-1.2q-1-0.4-2.48-0.4-0.6 0-1.24 0.04t-1.24 0.12q-0.56 0.04-1.04 0.12-0.44 0.08-0.64 0.12v17.56h-3.72z"/>
<path d="m340.39 188.4q2.28 0 3.36-0.6 1.12-0.6 1.12-1.92 0-1.36-1.08-2.16t-3.56-1.8q-1.2-0.48-2.32-0.96-1.08-0.52-1.88-1.2t-1.28-1.64-0.48-2.36q0-2.76 2.04-4.36 2.04-1.64 5.56-1.64 0.88 0 1.76 0.12 0.88 0.08 1.64 0.24 0.76 0.12 1.32 0.28 0.6 0.16 0.92 0.28l-0.68 3.2q-0.6-0.32-1.88-0.64-1.28-0.36-3.08-0.36-1.56 0-2.72 0.64-1.16 0.6-1.16 1.92 0 0.68 0.24 1.2 0.28 0.52 0.8 0.96 0.56 0.4 1.36 0.76t1.92 0.76q1.48 0.56 2.64 1.12 1.16 0.52 1.96 1.24 0.84 0.72 1.28 1.76 0.44 1 0.44 2.48 0 2.88-2.16 4.36-2.12 1.48-6.08 1.48-2.76 0-4.32-0.48-1.56-0.44-2.12-0.68l0.68-3.2q0.64 0.24 2.04 0.72t3.72 0.48z"/>
</g>
</g>
</svg>
