<?xml version="1.0" encoding="UTF-8"?>
<!DOCTYPE svg  PUBLIC '-//W3C//DTD SVG 1.0//EN'  'http://www.w3.org/TR/2001/REC-SVG-20010904/DTD/svg10.dtd'>
<svg enable-background="new 0 0 32 32" version="1.0" viewBox="0 0 32 32" xml:space="preserve" xmlns="http://www.w3.org/2000/svg"><circle cx="16" cy="16" r="16" clip-rule="evenodd" fill="#E02F2F" fill-rule="evenodd"/><g fill="#fff"><path d="m19 5.998h-6.164c-2.82 0-5.475 1.979-5.475 4.453 0 2.528 1.922 4.494 4.791 4.494 0.2 0 0.394-0.045 0.584-0.059-0.188 0.355-0.318 0.737-0.318 1.154 0 0.703 0.377 1.264 0.854 1.729-0.358 0-0.709 5e-3 -1.09 5e-3 -3.493 1e-3 -6.182 2.224-6.182 4.531 0 2.272 2.948 3.695 6.441 3.695 3.983 0 6.183-2.262 6.183-4.534 0-1.821-0.538-2.913-2.199-4.091-0.569-0.401-1.656-1.38-1.656-1.956 0-0.674 0.192-1.006 1.208-1.8 1.039-0.812 1.776-1.781 1.776-3.111 0-1.581-0.68-3.51-2.003-3.51h2.25l1-1zm-2.069 15.074c0.048 0.212 0.077 0.429 0.077 0.649 0 1.836-1.185 3.271-4.58 3.271-2.415 0-4.158-1.528-4.158-3.364 0-1.799 2.163-3.298 4.579-3.271 0.562 6e-3 1.088 0.097 1.564 0.249 1.311 0.913 2.251 1.428 2.518 2.466zm-3.868-6.849c-1.621-0.047-3.162-1.813-3.441-3.94-0.279-2.13 0.808-3.759 2.428-3.711 1.62 0.05 3.162 1.758 3.441 3.886 0.28 2.128-0.807 3.813-2.428 3.765z"/><polygon points="24 13.991 24 10.991 22 10.991 22 13.991 19 13.991 19 15.991 22 15.991 22 18.991 24 18.991 24 15.991 27 15.991 27 13.991"/></g></svg>
