<?xml version="1.0" encoding="UTF-8"?>
<svg enable-background="new 0 0 512 512" version="1.1" viewBox="0 0 512 512" xml:space="preserve" xmlns="http://www.w3.org/2000/svg"><style type="text/css">
	.st0{fill:url(#a);}
	.st1{fill:#FFFFFF;}
</style><radialGradient id="a" cx="50.158" cy="15.105" r="684.44" gradientTransform="matrix(.052336 -.9986 .8488 .044486 12 498.8)" gradientUnits="userSpaceOnUse"><stop stop-color="#FED576" offset="0"/><stop stop-color="#F47133" offset=".2634"/><stop stop-color="#BC3081" offset=".6091"/><stop stop-color="#4C63D2" offset="1"/></radialGradient><path class="st0" d="m18.8 250.1v12.8c3.3 122.4 101.9 220.7 219.2 229.9h36.1c118-9.3 214.9-108.5 218.1-230.1v-12.6c-3.2-123.8-103.5-224.2-224.3-230.4-130-6.6-245.5 97.7-249.1 230.4z"/><path class="st1" d="m256.6 138.3c37.7 0 42.2 0.1 57.1 0.8 13.8 0.6 21.2 3 26.2 4.9 6.6 2.6 11.3 5.7 16.2 10.7s8 9.8 10.6 16.5c1.9 5.1 4.2 12.7 4.9 26.7 0.7 15.2 0.8 19.7 0.8 58.1s-0.1 42.9-0.8 58.1c-0.6 14-2.9 21.6-4.9 26.7-2.6 6.7-5.6 11.5-10.6 16.5-4.9 5-9.6 8.1-16.2 10.7-5 2-12.5 4.3-26.2 4.9-14.9 0.7-19.4 0.8-57.1 0.8s-42.2-0.1-57.1-0.8c-13.8-0.6-21.2-3-26.2-4.9-6.6-2.6-11.3-5.7-16.2-10.7s-8-9.8-10.6-16.5c-1.9-5.1-4.2-12.7-4.9-26.7-0.7-15.2-0.8-19.7-0.8-58.1s0.1-42.9 0.8-58.1c0.6-14 2.9-21.6 4.9-26.7 2.6-6.7 5.6-11.5 10.6-16.5 4.9-5 9.6-8.1 16.2-10.7 5-2 12.5-4.3 26.2-4.9 14.9-0.6 19.4-0.8 57.1-0.8m0-25.9c-38.4 0-43.2 0.2-58.2 0.9s-25.3 3.1-34.3 6.7c-9.3 3.7-17.2 8.6-25 16.6-7.9 8-12.7 16-16.3 25.5-3.5 9.1-5.9 19.6-6.6 34.9s-0.8 20.2-0.8 59.2 0.2 43.9 0.8 59.2c0.7 15.3 3.1 25.7 6.6 34.9 3.6 9.4 8.4 17.5 16.3 25.5s15.7 12.9 25 16.6c9 3.6 19.3 6 34.3 6.7 15.1 0.7 19.9 0.9 58.2 0.9s43.2-0.2 58.2-0.9 25.3-3.1 34.3-6.7c9.3-3.7 17.2-8.6 25-16.6 7.9-8 12.7-16 16.3-25.5 3.5-9.1 5.9-19.6 6.6-34.9s0.8-20.2 0.8-59.2-0.2-43.9-0.8-59.2c-0.7-15.3-3.1-25.7-6.6-34.9-3.6-9.4-8.4-17.5-16.3-25.5s-15.7-12.9-25-16.6c-9-3.6-19.3-6-34.3-6.7s-19.9-0.9-58.2-0.9z"/><path class="st1" d="m256.6 182.3c-40.1 0-72.5 33-72.5 73.8s32.5 73.8 72.5 73.8 72.5-33 72.5-73.8-32.5-73.8-72.5-73.8zm0 121.7c-26 0-47.1-21.4-47.1-47.9s21.1-47.9 47.1-47.9 47.1 21.4 47.1 47.9-21.1 47.9-47.1 47.9z"/><ellipse class="st1" cx="332" cy="179.4" rx="16.9" ry="17.2"/></svg>
