<?xml version="1.0" encoding="UTF-8"?>
<!DOCTYPE svg  PUBLIC '-//W3C//DTD SVG 1.1//EN'  'http://www.w3.org/Graphics/SVG/1.1/DTD/svg11.dtd'>
<svg enable-background="new 0 0 512 512" version="1.1" viewBox="0 0 512 512" xml:space="preserve" xmlns="http://www.w3.org/2000/svg"><linearGradient id="b" x1="8.9756" x2="577.92" y1="-78.99" y2="557.69" gradientUnits="userSpaceOnUse"><stop stop-color="#517FA6" offset="0"/><stop stop-color="#426699" offset="1"/></linearGradient><path d="m271.06 214.36v-0.525c-0.1 0.17-0.247 0.36-0.347 0.525h0.347z" fill="url(#b)"/><linearGradient id="a" x1="-20.119" x2="548.83" y1="-52.99" y2="583.69" gradientUnits="userSpaceOnUse"><stop stop-color="#517FA6" offset="0"/><stop stop-color="#426699" offset="1"/></linearGradient><path d="m256 7.098c-137.46 0-248.9 111.44-248.9 248.9s111.44 248.9 248.9 248.9 248.9-111.44 248.9-248.9-111.44-248.9-248.9-248.9zm-68.545 345.7h-53.822v-161.91h53.822v161.91zm-26.901-184.01h-0.363c-18.058 0-29.755-12.445-29.755-27.992 0-15.886 12.052-27.969 30.465-27.969 18.421 0 29.747 12.083 30.102 27.969 1e-3 15.547-11.68 27.992-30.449 27.992zm221.01 184.01h-53.822v-86.627c0-21.759-7.792-36.613-27.271-36.613-14.875 0-23.725 10.008-27.624 19.687-1.42 3.464-1.783 8.276-1.783 13.125v90.425h-53.83s0.718-146.72 0-161.91h53.827v22.948c7.149-11.015 19.927-26.754 48.518-26.754 35.43 0 61.983 23.138 61.986 72.871v92.85z" fill="url(#a)"/></svg>
