<?xml version="1.0" encoding="UTF-8" standalone="no"?>
<svg width="91px" height="91px" viewBox="0 0 91 91" version="1.1" xmlns="http://www.w3.org/2000/svg" xmlns:xlink="http://www.w3.org/1999/xlink">
    <!-- Generator: Sketch 3.7 (28169) - http://www.bohemiancoding.com/sketch -->
    <title>Artboard</title>
    <desc>Created with Sketch.</desc>
    <defs></defs>
    <g id="Page-1" stroke="none" stroke-width="1" fill="none" fill-rule="evenodd">
        <g id="Artboard" fill="#A7CDCC">
            <path d="M45.516,0.674 C20.848,0.674 0.849,20.672 0.849,45.342 C0.849,70.011 20.848,90.009 45.516,90.009 C70.184,90.009 90.184,70.011 90.184,45.342 C90.184,20.672 70.186,0.674 45.516,0.674 L45.516,0.674 Z M61.096,52.787 L57.617,52.787 L50.113,67.56 L46.837,59.971 L49.953,54.572 C48.531,54.941 47.051,55.166 45.515,55.166 C43.98,55.166 42.499,54.941 41.077,54.572 L44.194,59.971 L40.918,67.561 L33.413,52.787 L29.936,52.787 C21.716,52.787 14.043,58.396 11.041,65.939 C7.411,59.91 5.294,52.876 5.294,45.339 C5.294,23.161 23.338,5.118 45.515,5.118 C67.693,5.118 85.736,23.161 85.736,45.339 C85.736,52.875 83.619,59.907 79.99,65.939 C76.986,58.396 69.314,52.787 61.096,52.787 L61.096,52.787 Z M45.516,12.474 C35.637,12.474 27.628,20.488 27.628,30.362 C27.628,40.241 35.636,52.878 45.516,52.878 C55.395,52.878 63.405,40.241 63.405,30.362 C63.402,20.485 55.395,12.474 45.516,12.474 L45.516,12.474 Z" id="Shape"></path>
        </g>
    </g>
</svg>